<?xml version="1.0" encoding="UTF-8"?>
<svg xmlns="http://www.w3.org/2000/svg" xmlns:xlink="http://www.w3.org/1999/xlink" width="37.5pt" height="37.499999pt" viewBox="0 0 37.5 37.499999" version="1.2">
<defs>
<clipPath id="clip1">
  <path d="M 5.4375 0 L 31 0 L 31 37 L 5.4375 37 Z M 5.4375 0 "/>
</clipPath>
<clipPath id="clip2">
  <path d="M 5.4375 15 L 25 15 L 25 37 L 5.4375 37 Z M 5.4375 15 "/>
</clipPath>
<clipPath id="clip3">
  <path d="M 9 2 L 32.4375 2 L 32.4375 37 L 9 37 Z M 9 2 "/>
</clipPath>
<clipPath id="clip4">
  <path d="M 28 2 L 32.4375 2 L 32.4375 28 L 28 28 Z M 28 2 "/>
</clipPath>
<clipPath id="clip5">
  <path d="M 9 2 L 32.4375 2 L 32.4375 37 L 9 37 Z M 9 2 "/>
</clipPath>
<filter id="alpha" filterUnits="objectBoundingBox" x="0%" y="0%" width="100%" height="100%">
  <feColorMatrix type="matrix" in="SourceGraphic" values="0 0 0 0 1 0 0 0 0 1 0 0 0 0 1 0 0 0 1 0"/>
</filter>
<mask id="mask0">
  <g filter="url(#alpha)">
<rect x="0" y="0" width="37.5" height="37.499999" style="fill:rgb(0%,0%,0%);fill-opacity:0.098;stroke:none;"/>
  </g>
</mask>
<clipPath id="clip7">
  <path d="M 1 0.367188 L 9 0.367188 L 9 13.632812 L 1 13.632812 Z M 1 0.367188 "/>
</clipPath>
<clipPath id="clip8">
  <path d="M 9 0.367188 L 11.5 0.367188 L 11.5 9 L 9 9 Z M 9 0.367188 "/>
</clipPath>
<clipPath id="clip6">
  <rect x="0" y="0" width="12" height="14"/>
</clipPath>
<g id="surface5" clip-path="url(#clip6)">
<g clip-path="url(#clip7)" clip-rule="nonzero">
<path style=" stroke:none;fill-rule:nonzero;fill:rgb(21.958923%,24.308777%,24.708557%);fill-opacity:1;" d="M 1.726562 13.496094 C 1.675781 13.496094 1.625 13.492188 1.574219 13.476562 C 1.230469 13.394531 1.023438 13.058594 1.105469 12.726562 L 4.054688 1.136719 C 4.121094 0.871094 4.363281 0.679688 4.644531 0.667969 C 4.921875 0.65625 5.183594 0.824219 5.277344 1.085938 L 8.226562 9.363281 C 8.34375 9.6875 8.164062 10.039062 7.832031 10.152344 C 7.496094 10.261719 7.136719 10.09375 7.019531 9.769531 L 4.777344 3.472656 L 2.347656 13.023438 C 2.273438 13.308594 2.011719 13.496094 1.726562 13.496094 Z M 1.726562 13.496094 "/>
</g>
<path style=" stroke:none;fill-rule:nonzero;fill:rgb(21.958923%,24.308777%,24.708557%);fill-opacity:1;" d="M 2.710938 9.632812 C 2.488281 9.632812 2.273438 9.523438 2.15625 9.324219 C 1.980469 9.027344 2.085938 8.648438 2.390625 8.476562 L 4.210938 7.453125 C 4.515625 7.28125 4.90625 7.382812 5.082031 7.679688 C 5.257812 7.976562 5.152344 8.359375 4.847656 8.53125 L 3.027344 9.550781 C 2.925781 9.609375 2.816406 9.632812 2.710938 9.632812 Z M 2.710938 9.632812 "/>
<g clip-path="url(#clip8)" clip-rule="nonzero">
<path style=" stroke:none;fill-rule:nonzero;fill:rgb(21.958923%,24.308777%,24.708557%);fill-opacity:1;" d="M 10.570312 8.53125 C 10.21875 8.53125 9.933594 8.253906 9.933594 7.910156 L 9.933594 1.289062 C 9.933594 0.945312 10.21875 0.667969 10.570312 0.667969 C 10.925781 0.667969 11.210938 0.945312 11.210938 1.289062 L 11.210938 7.910156 C 11.210938 8.253906 10.925781 8.53125 10.570312 8.53125 Z M 10.570312 8.53125 "/>
</g>
</g>
</defs>
<g id="surface1">
<g clip-path="url(#clip1)" clip-rule="nonzero">
<path style=" stroke:none;fill-rule:nonzero;fill:rgb(91.758728%,35.289001%,10.5896%);fill-opacity:1;" d="M 30.890625 2.820312 L 27.132812 0.726562 C 26.96875 0.613281 26.792969 0.511719 26.605469 0.433594 L 26.550781 0.402344 L 26.546875 0.40625 C 25.535156 0.0078125 24.230469 0.152344 22.804688 0.953125 L 11.230469 7.449219 C 8.046875 9.238281 5.445312 13.625 5.445312 17.195312 L 5.445312 30.195312 C 5.445312 31.9375 6.066406 33.171875 7.070312 33.777344 L 7.058594 33.796875 L 11.238281 36.097656 L 13.585938 32.121094 L 22.804688 26.945312 C 25.988281 25.15625 28.59375 20.769531 28.59375 17.199219 L 28.59375 6.714844 Z M 30.890625 2.820312 "/>
<path style=" stroke:none;fill-rule:nonzero;fill:rgb(84.709167%,31.759644%,5.488586%);fill-opacity:1;" d="M 30.890625 2.820312 L 26.867188 1.902344 C 26.703125 1.789062 25.882812 1.789062 25.695312 1.710938 L 25.398438 1.59375 L 24.859375 1.496094 C 23.847656 1.097656 24.230469 0.152344 22.804688 0.953125 L 11.230469 7.449219 C 8.046875 9.238281 5.445312 13.625 5.445312 17.195312 L 5.445312 30.195312 C 5.445312 31.9375 6.066406 33.171875 7.070312 33.777344 L 7.058594 33.796875 L 11.238281 36.097656 L 13.585938 32.121094 L 22.804688 26.945312 C 25.988281 25.15625 28.59375 20.769531 28.59375 17.199219 L 28.59375 6.714844 Z M 30.890625 2.820312 "/>
</g>
<g clip-path="url(#clip2)" clip-rule="nonzero">
<path style=" stroke:none;fill-rule:nonzero;fill:rgb(75.689697%,26.269531%,4.708862%);fill-opacity:1;" d="M 5.664062 15.324219 C 5.523438 15.960938 5.445312 16.589844 5.445312 17.195312 L 5.445312 30.195312 C 5.445312 31.9375 6.066406 33.171875 7.070312 33.777344 L 7.0625 33.796875 L 11.238281 36.097656 L 13.585938 32.121094 L 22.808594 26.945312 C 23.347656 26.640625 23.871094 26.257812 24.367188 25.820312 Z M 5.664062 15.324219 "/>
</g>
<g clip-path="url(#clip3)" clip-rule="nonzero">
<path style=" stroke:none;fill-rule:nonzero;fill:rgb(91.758728%,47.839355%,0%);fill-opacity:1;" d="M 15.210938 9.691406 C 12.027344 11.480469 9.421875 15.867188 9.421875 19.441406 L 9.421875 32.4375 C 9.421875 36.011719 12.027344 37.472656 15.210938 35.6875 L 26.785156 29.1875 C 29.96875 27.402344 32.570312 23.015625 32.570312 19.441406 L 32.570312 6.445312 C 32.570312 2.871094 29.96875 1.410156 26.785156 3.195312 Z M 15.210938 9.691406 "/>
</g>
<g clip-path="url(#clip4)" clip-rule="nonzero">
<path style=" stroke:none;fill-rule:nonzero;fill:rgb(100%,68.629456%,13.328552%);fill-opacity:1;" d="M 28.972656 2.453125 L 28.972656 27.46875 C 31.078125 25.3125 32.570312 22.144531 32.570312 19.441406 L 32.570312 6.445312 C 32.570312 3.738281 31.078125 2.246094 28.972656 2.453125 Z M 28.972656 2.453125 "/>
</g>
<g clip-path="url(#clip5)" clip-rule="nonzero">
<path style=" stroke:none;fill-rule:nonzero;fill:rgb(21.958923%,24.308777%,24.708557%);fill-opacity:0.098;" d="M 32.570312 6.445312 C 32.570312 2.871094 29.96875 1.410156 26.785156 3.195312 L 15.210938 9.691406 C 12.027344 11.480469 9.421875 15.867188 9.421875 19.441406 L 9.421875 32.4375 C 9.421875 36.011719 12.027344 37.472656 15.210938 35.6875 "/>
<path style=" stroke:none;fill-rule:nonzero;fill:rgb(100%,68.629456%,13.328552%);fill-opacity:1;" d="M 12.640625 36.679688 L 12.636719 36.679688 C 10.539062 36.679688 9.183594 35.015625 9.183594 32.4375 L 9.183594 19.441406 C 9.183594 15.785156 11.832031 11.320312 15.089844 9.492188 L 26.664062 2.996094 C 27.601562 2.46875 28.507812 2.199219 29.355469 2.199219 C 31.453125 2.199219 32.808594 3.867188 32.808594 6.445312 L 32.808594 19.441406 C 32.808594 23.097656 30.160156 27.558594 26.902344 29.390625 L 15.328125 35.886719 C 14.390625 36.414062 13.484375 36.679688 12.640625 36.679688 Z M 29.355469 2.664062 C 28.59375 2.664062 27.769531 2.910156 26.90625 3.394531 L 15.328125 9.894531 C 12.203125 11.648438 9.660156 15.929688 9.660156 19.441406 L 9.660156 32.4375 C 9.660156 34.765625 10.800781 36.214844 12.636719 36.214844 L 12.640625 36.214844 C 13.402344 36.214844 14.226562 35.96875 15.089844 35.484375 L 26.664062 28.984375 C 29.789062 27.230469 32.332031 22.949219 32.332031 19.441406 L 32.332031 6.441406 C 32.332031 4.113281 31.191406 2.664062 29.355469 2.664062 Z M 29.355469 2.664062 "/>
</g>
<path style=" stroke:none;fill-rule:nonzero;fill:rgb(100%,100%,100%);fill-opacity:1;" d="M 12.726562 32.667969 C 12.675781 32.667969 12.625 32.660156 12.574219 32.648438 C 12.230469 32.566406 12.023438 32.230469 12.105469 31.898438 L 15.054688 20.308594 C 15.121094 20.042969 15.363281 19.851562 15.644531 19.839844 C 15.921875 19.824219 16.183594 19.996094 16.277344 20.253906 L 19.226562 28.53125 C 19.34375 28.855469 19.164062 29.210938 18.832031 29.320312 C 18.496094 29.433594 18.136719 29.261719 18.019531 28.9375 L 15.777344 22.640625 L 13.347656 32.195312 C 13.273438 32.476562 13.011719 32.667969 12.726562 32.667969 Z M 12.726562 32.667969 "/>
<path style=" stroke:none;fill-rule:nonzero;fill:rgb(100%,100%,100%);fill-opacity:1;" d="M 13.710938 28.804688 C 13.488281 28.804688 13.273438 28.691406 13.15625 28.492188 C 12.980469 28.195312 13.085938 27.816406 13.390625 27.644531 L 15.210938 26.625 C 15.515625 26.453125 15.90625 26.554688 16.082031 26.851562 C 16.257812 27.148438 16.152344 27.527344 15.847656 27.699219 L 14.027344 28.722656 C 13.925781 28.777344 13.816406 28.804688 13.710938 28.804688 Z M 13.710938 28.804688 "/>
<path style=" stroke:none;fill-rule:nonzero;fill:rgb(100%,100%,100%);fill-opacity:1;" d="M 21.570312 27.703125 C 21.21875 27.703125 20.933594 27.421875 20.933594 27.082031 L 20.933594 20.460938 C 20.933594 20.117188 21.21875 19.839844 21.570312 19.839844 C 21.925781 19.839844 22.210938 20.117188 22.210938 20.460938 L 22.210938 27.082031 C 22.210938 27.421875 21.925781 27.703125 21.570312 27.703125 Z M 21.570312 27.703125 "/>
<use xlink:href="#surface5" transform="matrix(1,0,0,1,11,20)" mask="url(#mask0)"/>
</g>
</svg>
