<?xml version="1.0" encoding="UTF-8"?>
<svg xmlns="http://www.w3.org/2000/svg" xmlns:xlink="http://www.w3.org/1999/xlink" width="37.5pt" height="37.499999pt" viewBox="0 0 37.5 37.499999" version="1.2">
<defs>
<clipPath id="clip1">
  <path d="M 0 0 L 37.007812 0 L 37.007812 37.007812 L 0 37.007812 Z M 0 0 "/>
</clipPath>
<clipPath id="clip2">
  <path d="M 23.421875 8.46875 L 37.007812 8.46875 L 37.007812 29.753906 L 23.421875 29.753906 Z M 23.421875 8.46875 "/>
</clipPath>
<clipPath id="clip3">
  <path d="M 18.75 0 C 29.105469 0 37.5 8.394531 37.5 18.75 C 37.5 29.105469 29.105469 37.5 18.75 37.5 C 8.394531 37.5 0 29.105469 0 18.75 C 0 8.394531 8.394531 0 18.75 0 Z M 18.75 0 "/>
</clipPath>
<clipPath id="clip4">
  <path d="M 23.421875 8.851562 L 37.007812 8.851562 L 37.007812 32.65625 L 23.421875 32.65625 Z M 23.421875 8.851562 "/>
</clipPath>
<clipPath id="clip5">
  <path d="M 18.75 0 C 29.105469 0 37.5 8.394531 37.5 18.75 C 37.5 29.105469 29.105469 37.5 18.75 37.5 C 8.394531 37.5 0 29.105469 0 18.75 C 0 8.394531 8.394531 0 18.75 0 Z M 18.75 0 "/>
</clipPath>
<clipPath id="clip6">
  <path d="M 24.109375 11.75 L 37.007812 11.75 L 37.007812 34.105469 L 24.109375 34.105469 Z M 24.109375 11.75 "/>
</clipPath>
<clipPath id="clip7">
  <path d="M 18.75 0 C 29.105469 0 37.5 8.394531 37.5 18.75 C 37.5 29.105469 29.105469 37.5 18.75 37.5 C 8.394531 37.5 0 29.105469 0 18.75 C 0 8.394531 8.394531 0 18.75 0 Z M 18.75 0 "/>
</clipPath>
<clipPath id="clip8">
  <path d="M 26.398438 14.421875 L 37.007812 14.421875 L 37.007812 35.476562 L 26.398438 35.476562 Z M 26.398438 14.421875 "/>
</clipPath>
<clipPath id="clip9">
  <path d="M 18.75 0 C 29.105469 0 37.5 8.394531 37.5 18.75 C 37.5 29.105469 29.105469 37.5 18.75 37.5 C 8.394531 37.5 0 29.105469 0 18.75 C 0 8.394531 8.394531 0 18.75 0 Z M 18.75 0 "/>
</clipPath>
<clipPath id="clip10">
  <path d="M 26.398438 14.648438 L 37.007812 14.648438 L 37.007812 37.007812 L 26.398438 37.007812 Z M 26.398438 14.648438 "/>
</clipPath>
<clipPath id="clip11">
  <path d="M 18.75 0 C 29.105469 0 37.5 8.394531 37.5 18.75 C 37.5 29.105469 29.105469 37.5 18.75 37.5 C 8.394531 37.5 0 29.105469 0 18.75 C 0 8.394531 8.394531 0 18.75 0 Z M 18.75 0 "/>
</clipPath>
<clipPath id="clip12">
  <path d="M 26.398438 17.851562 L 37.007812 17.851562 L 37.007812 37.007812 L 26.398438 37.007812 Z M 26.398438 17.851562 "/>
</clipPath>
<clipPath id="clip13">
  <path d="M 18.75 0 C 29.105469 0 37.5 8.394531 37.5 18.75 C 37.5 29.105469 29.105469 37.5 18.75 37.5 C 8.394531 37.5 0 29.105469 0 18.75 C 0 8.394531 8.394531 0 18.75 0 Z M 18.75 0 "/>
</clipPath>
<clipPath id="clip14">
  <path d="M 17.015625 8.851562 L 37.007812 8.851562 L 37.007812 31.890625 L 17.015625 31.890625 Z M 17.015625 8.851562 "/>
</clipPath>
<clipPath id="clip15">
  <path d="M 18.75 0 C 29.105469 0 37.5 8.394531 37.5 18.75 C 37.5 29.105469 29.105469 37.5 18.75 37.5 C 8.394531 37.5 0 29.105469 0 18.75 C 0 8.394531 8.394531 0 18.75 0 Z M 18.75 0 "/>
</clipPath>
<clipPath id="clip16">
  <path d="M 25.558594 18.3125 L 37.007812 18.3125 L 37.007812 37.007812 L 25.558594 37.007812 Z M 25.558594 18.3125 "/>
</clipPath>
<clipPath id="clip17">
  <path d="M 18.75 0 C 29.105469 0 37.5 8.394531 37.5 18.75 C 37.5 29.105469 29.105469 37.5 18.75 37.5 C 8.394531 37.5 0 29.105469 0 18.75 C 0 8.394531 8.394531 0 18.75 0 Z M 18.75 0 "/>
</clipPath>
<clipPath id="clip18">
  <path d="M 25.558594 18.617188 L 37.007812 18.617188 L 37.007812 37.007812 L 25.558594 37.007812 Z M 25.558594 18.617188 "/>
</clipPath>
<clipPath id="clip19">
  <path d="M 18.75 0 C 29.105469 0 37.5 8.394531 37.5 18.75 C 37.5 29.105469 29.105469 37.5 18.75 37.5 C 8.394531 37.5 0 29.105469 0 18.75 C 0 8.394531 8.394531 0 18.75 0 Z M 18.75 0 "/>
</clipPath>
<clipPath id="clip20">
  <path d="M 25.558594 19.457031 L 37.007812 19.457031 L 37.007812 37.007812 L 25.558594 37.007812 Z M 25.558594 19.457031 "/>
</clipPath>
<clipPath id="clip21">
  <path d="M 18.75 0 C 29.105469 0 37.5 8.394531 37.5 18.75 C 37.5 29.105469 29.105469 37.5 18.75 37.5 C 8.394531 37.5 0 29.105469 0 18.75 C 0 8.394531 8.394531 0 18.75 0 Z M 18.75 0 "/>
</clipPath>
<clipPath id="clip22">
  <path d="M 26.398438 19.53125 L 37.007812 19.53125 L 37.007812 37.007812 L 26.398438 37.007812 Z M 26.398438 19.53125 "/>
</clipPath>
<clipPath id="clip23">
  <path d="M 18.75 0 C 29.105469 0 37.5 8.394531 37.5 18.75 C 37.5 29.105469 29.105469 37.5 18.75 37.5 C 8.394531 37.5 0 29.105469 0 18.75 C 0 8.394531 8.394531 0 18.75 0 Z M 18.75 0 "/>
</clipPath>
<clipPath id="clip24">
  <path d="M 17.015625 11 L 37.007812 11 L 37.007812 33.035156 L 17.015625 33.035156 Z M 17.015625 11 "/>
</clipPath>
<clipPath id="clip25">
  <path d="M 18.75 0 C 29.105469 0 37.5 8.394531 37.5 18.75 C 37.5 29.105469 29.105469 37.5 18.75 37.5 C 8.394531 37.5 0 29.105469 0 18.75 C 0 8.394531 8.394531 0 18.75 0 Z M 18.75 0 "/>
</clipPath>
<clipPath id="clip26">
  <path d="M 26.398438 22.582031 L 37.007812 22.582031 L 37.007812 37.007812 L 26.398438 37.007812 Z M 26.398438 22.582031 "/>
</clipPath>
<clipPath id="clip27">
  <path d="M 18.75 0 C 29.105469 0 37.5 8.394531 37.5 18.75 C 37.5 29.105469 29.105469 37.5 18.75 37.5 C 8.394531 37.5 0 29.105469 0 18.75 C 0 8.394531 8.394531 0 18.75 0 Z M 18.75 0 "/>
</clipPath>
<clipPath id="clip28">
  <path d="M 26 23 L 37.007812 23 L 37.007812 37.007812 L 26 37.007812 Z M 26 23 "/>
</clipPath>
<clipPath id="clip29">
  <path d="M 18.75 0 C 29.105469 0 37.5 8.394531 37.5 18.75 C 37.5 29.105469 29.105469 37.5 18.75 37.5 C 8.394531 37.5 0 29.105469 0 18.75 C 0 8.394531 8.394531 0 18.75 0 Z M 18.75 0 "/>
</clipPath>
<clipPath id="clip30">
  <path d="M 25.558594 23 L 37.007812 23 L 37.007812 37.007812 L 25.558594 37.007812 Z M 25.558594 23 "/>
</clipPath>
<clipPath id="clip31">
  <path d="M 18.75 0 C 29.105469 0 37.5 8.394531 37.5 18.75 C 37.5 29.105469 29.105469 37.5 18.75 37.5 C 8.394531 37.5 0 29.105469 0 18.75 C 0 8.394531 8.394531 0 18.75 0 Z M 18.75 0 "/>
</clipPath>
<clipPath id="clip32">
  <path d="M 25.558594 23.421875 L 37.007812 23.421875 L 37.007812 37.007812 L 25.558594 37.007812 Z M 25.558594 23.421875 "/>
</clipPath>
<clipPath id="clip33">
  <path d="M 18.75 0 C 29.105469 0 37.5 8.394531 37.5 18.75 C 37.5 29.105469 29.105469 37.5 18.75 37.5 C 8.394531 37.5 0 29.105469 0 18.75 C 0 8.394531 8.394531 0 18.75 0 Z M 18.75 0 "/>
</clipPath>
<clipPath id="clip34">
  <path d="M 26.398438 24.261719 L 37.007812 24.261719 L 37.007812 37.007812 L 26.398438 37.007812 Z M 26.398438 24.261719 "/>
</clipPath>
<clipPath id="clip35">
  <path d="M 18.75 0 C 29.105469 0 37.5 8.394531 37.5 18.75 C 37.5 29.105469 29.105469 37.5 18.75 37.5 C 8.394531 37.5 0 29.105469 0 18.75 C 0 8.394531 8.394531 0 18.75 0 Z M 18.75 0 "/>
</clipPath>
<clipPath id="clip36">
  <path d="M 26.398438 24.71875 L 37.007812 24.71875 L 37.007812 37.007812 L 26.398438 37.007812 Z M 26.398438 24.71875 "/>
</clipPath>
<clipPath id="clip37">
  <path d="M 18.75 0 C 29.105469 0 37.5 8.394531 37.5 18.75 C 37.5 29.105469 29.105469 37.5 18.75 37.5 C 8.394531 37.5 0 29.105469 0 18.75 C 0 8.394531 8.394531 0 18.75 0 Z M 18.75 0 "/>
</clipPath>
<clipPath id="clip38">
  <path d="M 26.398438 28.535156 L 37.007812 28.535156 L 37.007812 37.007812 L 26.398438 37.007812 Z M 26.398438 28.535156 "/>
</clipPath>
<clipPath id="clip39">
  <path d="M 18.75 0 C 29.105469 0 37.5 8.394531 37.5 18.75 C 37.5 29.105469 29.105469 37.5 18.75 37.5 C 8.394531 37.5 0 29.105469 0 18.75 C 0 8.394531 8.394531 0 18.75 0 Z M 18.75 0 "/>
</clipPath>
<clipPath id="clip40">
  <path d="M 26 29 L 37.007812 29 L 37.007812 37.007812 L 26 37.007812 Z M 26 29 "/>
</clipPath>
<clipPath id="clip41">
  <path d="M 18.75 0 C 29.105469 0 37.5 8.394531 37.5 18.75 C 37.5 29.105469 29.105469 37.5 18.75 37.5 C 8.394531 37.5 0 29.105469 0 18.75 C 0 8.394531 8.394531 0 18.75 0 Z M 18.75 0 "/>
</clipPath>
<clipPath id="clip42">
  <path d="M 11.445312 23 L 32.730469 23 L 32.730469 37.007812 L 11.445312 37.007812 Z M 11.445312 23 "/>
</clipPath>
<clipPath id="clip43">
  <path d="M 18.75 0 C 29.105469 0 37.5 8.394531 37.5 18.75 C 37.5 29.105469 29.105469 37.5 18.75 37.5 C 8.394531 37.5 0 29.105469 0 18.75 C 0 8.394531 8.394531 0 18.75 0 Z M 18.75 0 "/>
</clipPath>
<clipPath id="clip44">
  <path d="M 11 29 L 32.351562 29 L 32.351562 37.007812 L 11 37.007812 Z M 11 29 "/>
</clipPath>
<clipPath id="clip45">
  <path d="M 18.75 0 C 29.105469 0 37.5 8.394531 37.5 18.75 C 37.5 29.105469 29.105469 37.5 18.75 37.5 C 8.394531 37.5 0 29.105469 0 18.75 C 0 8.394531 8.394531 0 18.75 0 Z M 18.75 0 "/>
</clipPath>
<clipPath id="clip46">
  <path d="M 11 23 L 32.351562 23 L 32.351562 37.007812 L 11 37.007812 Z M 11 23 "/>
</clipPath>
<clipPath id="clip47">
  <path d="M 18.75 0 C 29.105469 0 37.5 8.394531 37.5 18.75 C 37.5 29.105469 29.105469 37.5 18.75 37.5 C 8.394531 37.5 0 29.105469 0 18.75 C 0 8.394531 8.394531 0 18.75 0 Z M 18.75 0 "/>
</clipPath>
<clipPath id="clip48">
  <path d="M 11.445312 18.3125 L 32.730469 18.3125 L 32.730469 37.007812 L 11.445312 37.007812 Z M 11.445312 18.3125 "/>
</clipPath>
<clipPath id="clip49">
  <path d="M 18.75 0 C 29.105469 0 37.5 8.394531 37.5 18.75 C 37.5 29.105469 29.105469 37.5 18.75 37.5 C 8.394531 37.5 0 29.105469 0 18.75 C 0 8.394531 8.394531 0 18.75 0 Z M 18.75 0 "/>
</clipPath>
<clipPath id="clip50">
  <path d="M 11 18.3125 L 32.351562 18.3125 L 32.351562 37.007812 L 11 37.007812 Z M 11 18.3125 "/>
</clipPath>
<clipPath id="clip51">
  <path d="M 18.75 0 C 29.105469 0 37.5 8.394531 37.5 18.75 C 37.5 29.105469 29.105469 37.5 18.75 37.5 C 8.394531 37.5 0 29.105469 0 18.75 C 0 8.394531 8.394531 0 18.75 0 Z M 18.75 0 "/>
</clipPath>
<clipPath id="clip52">
  <path d="M 11.445312 29 L 37.007812 29 L 37.007812 37.007812 L 11.445312 37.007812 Z M 11.445312 29 "/>
</clipPath>
<clipPath id="clip53">
  <path d="M 18.75 0 C 29.105469 0 37.5 8.394531 37.5 18.75 C 37.5 29.105469 29.105469 37.5 18.75 37.5 C 8.394531 37.5 0 29.105469 0 18.75 C 0 8.394531 8.394531 0 18.75 0 Z M 18.75 0 "/>
</clipPath>
<clipPath id="clip54">
  <path d="M 17.015625 8.46875 L 37.007812 8.46875 L 37.007812 29.753906 L 17.015625 29.753906 Z M 17.015625 8.46875 "/>
</clipPath>
<clipPath id="clip55">
  <path d="M 18.75 0 C 29.105469 0 37.5 8.394531 37.5 18.75 C 37.5 29.105469 29.105469 37.5 18.75 37.5 C 8.394531 37.5 0 29.105469 0 18.75 C 0 8.394531 8.394531 0 18.75 0 Z M 18.75 0 "/>
</clipPath>
<clipPath id="clip56">
  <path d="M 26 18.3125 L 37.007812 18.3125 L 37.007812 37.007812 L 26 37.007812 Z M 26 18.3125 "/>
</clipPath>
<clipPath id="clip57">
  <path d="M 18.75 0 C 29.105469 0 37.5 8.394531 37.5 18.75 C 37.5 29.105469 29.105469 37.5 18.75 37.5 C 8.394531 37.5 0 29.105469 0 18.75 C 0 8.394531 8.394531 0 18.75 0 Z M 18.75 0 "/>
</clipPath>
<clipPath id="clip58">
  <path d="M 26.398438 20 L 37.007812 20 L 37.007812 37.007812 L 26.398438 37.007812 Z M 26.398438 20 "/>
</clipPath>
<clipPath id="clip59">
  <path d="M 18.75 0 C 29.105469 0 37.5 8.394531 37.5 18.75 C 37.5 29.105469 29.105469 37.5 18.75 37.5 C 8.394531 37.5 0 29.105469 0 18.75 C 0 8.394531 8.394531 0 18.75 0 Z M 18.75 0 "/>
</clipPath>
<clipPath id="clip60">
  <path d="M 11 8.46875 L 26.476562 8.46875 L 26.476562 29.070312 L 11 29.070312 Z M 11 8.46875 "/>
</clipPath>
<clipPath id="clip61">
  <path d="M 18.75 0 C 29.105469 0 37.5 8.394531 37.5 18.75 C 37.5 29.105469 29.105469 37.5 18.75 37.5 C 8.394531 37.5 0 29.105469 0 18.75 C 0 8.394531 8.394531 0 18.75 0 Z M 18.75 0 "/>
</clipPath>
</defs>
<g id="surface1">
<g clip-path="url(#clip1)" clip-rule="nonzero">
<path style=" stroke:none;fill-rule:evenodd;fill:rgb(11.759949%,53.329468%,89.7995%);fill-opacity:1;" d="M 18.75 0 C 29.105469 0 37.5 8.394531 37.5 18.75 C 37.5 29.105469 29.105469 37.5 18.75 37.5 C 8.394531 37.5 0 29.105469 0 18.75 C 0 8.394531 8.394531 0 18.75 0 "/>
</g>
<g clip-path="url(#clip2)" clip-rule="nonzero">
<g clip-path="url(#clip3)" clip-rule="nonzero">
<path style=" stroke:none;fill-rule:evenodd;fill:rgb(8.239746%,39.608765%,75.289917%);fill-opacity:1;" d="M 23.464844 8.496094 L 44.261719 29.296875 L 44.277344 29.707031 L 23.480469 8.910156 L 23.464844 8.496094 "/>
</g>
</g>
<g clip-path="url(#clip4)" clip-rule="nonzero">
<g clip-path="url(#clip5)" clip-rule="nonzero">
<path style=" stroke:none;fill-rule:evenodd;fill:rgb(8.239746%,39.608765%,75.289917%);fill-opacity:1;" d="M 23.480469 8.910156 L 44.277344 29.707031 L 44.28125 29.800781 L 44.285156 29.898438 L 44.308594 30.179688 L 44.316406 30.269531 L 44.328125 30.363281 L 44.335938 30.457031 L 44.347656 30.550781 L 44.363281 30.640625 L 44.375 30.734375 L 44.390625 30.824219 L 44.40625 30.917969 L 44.484375 31.277344 L 44.507812 31.367188 L 44.527344 31.457031 L 44.554688 31.546875 L 44.578125 31.636719 L 44.605469 31.726562 L 44.632812 31.8125 L 44.664062 31.902344 L 44.726562 32.074219 L 44.761719 32.164062 L 44.792969 32.25 L 44.832031 32.335938 L 44.867188 32.421875 L 44.90625 32.507812 L 44.945312 32.589844 L 24.148438 11.792969 L 24.03125 11.535156 L 23.925781 11.277344 L 23.894531 11.1875 L 23.863281 11.101562 L 23.835938 11.015625 L 23.78125 10.835938 L 23.753906 10.75 L 23.683594 10.480469 L 23.644531 10.300781 L 23.625 10.207031 L 23.59375 10.027344 L 23.578125 9.933594 L 23.5625 9.84375 L 23.539062 9.65625 L 23.527344 9.566406 L 23.515625 9.472656 L 23.492188 9.191406 L 23.480469 8.910156 "/>
</g>
</g>
<g clip-path="url(#clip6)" clip-rule="nonzero">
<g clip-path="url(#clip7)" clip-rule="nonzero">
<path style=" stroke:none;fill-rule:evenodd;fill:rgb(8.239746%,39.608765%,75.289917%);fill-opacity:1;" d="M 24.148438 11.792969 L 44.945312 32.589844 L 45.03125 32.761719 L 45.074219 32.84375 L 45.121094 32.929688 L 45.167969 33.011719 L 45.320312 33.257812 L 45.429688 33.421875 L 45.488281 33.503906 L 45.542969 33.585938 L 45.605469 33.664062 L 45.667969 33.746094 L 45.792969 33.902344 L 45.859375 33.984375 L 45.929688 34.0625 L 25.128906 13.261719 L 24.996094 13.105469 L 24.929688 13.023438 L 24.804688 12.867188 L 24.6875 12.703125 L 24.628906 12.625 L 24.519531 12.460938 L 24.417969 12.296875 L 24.371094 12.210938 L 24.277344 12.046875 L 24.230469 11.960938 L 24.1875 11.878906 L 24.148438 11.792969 "/>
</g>
</g>
<g clip-path="url(#clip8)" clip-rule="nonzero">
<g clip-path="url(#clip9)" clip-rule="nonzero">
<path style=" stroke:none;fill-rule:evenodd;fill:rgb(8.239746%,39.608765%,75.289917%);fill-opacity:1;" d="M 26.441406 14.445312 L 47.242188 35.246094 L 47.242188 35.457031 L 26.441406 14.65625 L 26.441406 14.445312 "/>
</g>
</g>
<g clip-path="url(#clip10)" clip-rule="nonzero">
<g clip-path="url(#clip11)" clip-rule="nonzero">
<path style=" stroke:none;fill-rule:evenodd;fill:rgb(8.239746%,39.608765%,75.289917%);fill-opacity:1;" d="M 26.441406 14.65625 L 47.242188 35.457031 L 47.242188 38.695312 L 26.441406 17.894531 L 26.441406 14.65625 "/>
</g>
</g>
<g clip-path="url(#clip12)" clip-rule="nonzero">
<g clip-path="url(#clip13)" clip-rule="nonzero">
<path style=" stroke:none;fill-rule:evenodd;fill:rgb(8.239746%,39.608765%,75.289917%);fill-opacity:1;" d="M 26.441406 17.894531 L 47.242188 38.695312 L 47.242188 39.125 L 26.441406 18.324219 L 26.441406 17.894531 "/>
</g>
</g>
<g clip-path="url(#clip14)" clip-rule="nonzero">
<g clip-path="url(#clip15)" clip-rule="nonzero">
<path style=" stroke:none;fill-rule:evenodd;fill:rgb(8.239746%,39.608765%,75.289917%);fill-opacity:1;" d="M 17.042969 8.921875 L 37.839844 29.722656 L 37.839844 31.859375 L 17.042969 11.058594 L 17.042969 8.921875 "/>
</g>
</g>
<g clip-path="url(#clip16)" clip-rule="nonzero">
<g clip-path="url(#clip17)" clip-rule="nonzero">
<path style=" stroke:none;fill-rule:evenodd;fill:rgb(8.239746%,39.608765%,75.289917%);fill-opacity:1;" d="M 26.015625 18.324219 L 46.8125 39.125 L 46.386719 39.125 L 25.585938 18.324219 L 26.015625 18.324219 "/>
<path style=" stroke:none;fill-rule:evenodd;fill:rgb(8.239746%,39.608765%,75.289917%);fill-opacity:1;" d="M 25.585938 18.324219 L 46.386719 39.125 L 46.386719 39.460938 L 25.585938 18.660156 L 25.585938 18.324219 "/>
</g>
</g>
<g clip-path="url(#clip18)" clip-rule="nonzero">
<g clip-path="url(#clip19)" clip-rule="nonzero">
<path style=" stroke:none;fill-rule:evenodd;fill:rgb(8.239746%,39.608765%,75.289917%);fill-opacity:1;" d="M 25.585938 18.660156 L 46.386719 39.460938 L 46.386719 40.3125 L 25.585938 19.515625 L 25.585938 18.660156 "/>
</g>
</g>
<g clip-path="url(#clip20)" clip-rule="nonzero">
<g clip-path="url(#clip21)" clip-rule="nonzero">
<path style=" stroke:none;fill-rule:evenodd;fill:rgb(8.239746%,39.608765%,75.289917%);fill-opacity:1;" d="M 25.585938 19.515625 L 46.386719 40.3125 L 46.386719 40.40625 L 25.585938 19.605469 L 25.585938 19.515625 "/>
</g>
</g>
<g clip-path="url(#clip22)" clip-rule="nonzero">
<g clip-path="url(#clip23)" clip-rule="nonzero">
<path style=" stroke:none;fill-rule:evenodd;fill:rgb(8.239746%,39.608765%,75.289917%);fill-opacity:1;" d="M 26.441406 19.605469 L 47.242188 40.40625 L 47.242188 40.832031 L 26.441406 20.03125 L 26.441406 19.605469 "/>
</g>
</g>
<g clip-path="url(#clip24)" clip-rule="nonzero">
<g clip-path="url(#clip25)" clip-rule="nonzero">
<path style=" stroke:none;fill-rule:evenodd;fill:rgb(8.239746%,39.608765%,75.289917%);fill-opacity:1;" d="M 17.042969 11.058594 L 37.839844 31.859375 L 37.839844 31.902344 L 37.847656 31.988281 L 37.851562 32.035156 L 37.855469 32.074219 L 37.859375 32.117188 L 37.875 32.203125 L 37.886719 32.242188 L 37.894531 32.285156 L 37.90625 32.324219 L 37.917969 32.367188 L 37.929688 32.40625 L 37.992188 32.5625 L 38.011719 32.597656 L 38.027344 32.636719 L 38.046875 32.671875 L 38.070312 32.707031 L 38.089844 32.742188 L 38.113281 32.777344 L 38.132812 32.8125 L 38.15625 32.847656 L 38.183594 32.878906 L 38.207031 32.914062 L 38.234375 32.945312 L 38.257812 32.976562 L 38.285156 33.007812 L 38.316406 33.035156 L 17.515625 12.238281 L 17.40625 12.113281 L 17.382812 12.082031 L 17.335938 12.011719 L 17.3125 11.980469 L 17.289062 11.945312 L 17.269531 11.910156 L 17.25 11.871094 L 17.210938 11.800781 L 17.195312 11.761719 L 17.175781 11.722656 L 17.144531 11.644531 L 17.132812 11.605469 L 17.117188 11.566406 L 17.105469 11.527344 L 17.097656 11.484375 L 17.085938 11.445312 L 17.070312 11.359375 L 17.0625 11.320312 L 17.054688 11.277344 L 17.042969 11.148438 L 17.042969 11.058594 "/>
</g>
</g>
<g clip-path="url(#clip26)" clip-rule="nonzero">
<g clip-path="url(#clip27)" clip-rule="nonzero">
<path style=" stroke:none;fill-rule:evenodd;fill:rgb(8.239746%,39.608765%,75.289917%);fill-opacity:1;" d="M 26.441406 22.597656 L 47.242188 43.394531 L 47.242188 43.824219 L 26.441406 23.023438 L 26.441406 22.597656 "/>
</g>
</g>
<g clip-path="url(#clip28)" clip-rule="nonzero">
<g clip-path="url(#clip29)" clip-rule="nonzero">
<path style=" stroke:none;fill-rule:evenodd;fill:rgb(8.239746%,39.608765%,75.289917%);fill-opacity:1;" d="M 26.441406 23.023438 L 47.242188 43.824219 L 46.8125 43.824219 L 26.015625 23.023438 L 26.441406 23.023438 "/>
</g>
</g>
<g clip-path="url(#clip30)" clip-rule="nonzero">
<g clip-path="url(#clip31)" clip-rule="nonzero">
<path style=" stroke:none;fill-rule:evenodd;fill:rgb(8.239746%,39.608765%,75.289917%);fill-opacity:1;" d="M 26.015625 23.023438 L 46.8125 43.824219 L 46.386719 43.824219 L 25.585938 23.023438 L 26.015625 23.023438 "/>
<path style=" stroke:none;fill-rule:evenodd;fill:rgb(8.239746%,39.608765%,75.289917%);fill-opacity:1;" d="M 25.585938 23.023438 L 46.386719 43.824219 L 46.386719 44.25 L 25.585938 23.449219 L 25.585938 23.023438 "/>
</g>
</g>
<g clip-path="url(#clip32)" clip-rule="nonzero">
<g clip-path="url(#clip33)" clip-rule="nonzero">
<path style=" stroke:none;fill-rule:evenodd;fill:rgb(8.239746%,39.608765%,75.289917%);fill-opacity:1;" d="M 25.585938 23.449219 L 46.386719 44.25 L 46.386719 45.105469 L 25.585938 24.304688 L 25.585938 23.449219 "/>
</g>
</g>
<g clip-path="url(#clip34)" clip-rule="nonzero">
<g clip-path="url(#clip35)" clip-rule="nonzero">
<path style=" stroke:none;fill-rule:evenodd;fill:rgb(8.239746%,39.608765%,75.289917%);fill-opacity:1;" d="M 26.441406 24.304688 L 47.242188 45.105469 L 47.242188 45.53125 L 26.441406 24.734375 L 26.441406 24.304688 "/>
</g>
</g>
<g clip-path="url(#clip36)" clip-rule="nonzero">
<g clip-path="url(#clip37)" clip-rule="nonzero">
<path style=" stroke:none;fill-rule:evenodd;fill:rgb(8.239746%,39.608765%,75.289917%);fill-opacity:1;" d="M 26.441406 24.734375 L 47.242188 45.53125 L 47.242188 49.378906 L 26.441406 28.578125 L 26.441406 24.734375 "/>
</g>
</g>
<g clip-path="url(#clip38)" clip-rule="nonzero">
<g clip-path="url(#clip39)" clip-rule="nonzero">
<path style=" stroke:none;fill-rule:evenodd;fill:rgb(8.239746%,39.608765%,75.289917%);fill-opacity:1;" d="M 26.441406 28.578125 L 47.242188 49.378906 L 47.242188 49.804688 L 26.441406 29.003906 L 26.441406 28.578125 "/>
</g>
</g>
<g clip-path="url(#clip40)" clip-rule="nonzero">
<g clip-path="url(#clip41)" clip-rule="nonzero">
<path style=" stroke:none;fill-rule:evenodd;fill:rgb(8.239746%,39.608765%,75.289917%);fill-opacity:1;" d="M 26.441406 29.003906 L 47.242188 49.804688 L 46.8125 49.804688 L 26.015625 29.003906 L 26.441406 29.003906 "/>
</g>
</g>
<g clip-path="url(#clip42)" clip-rule="nonzero">
<g clip-path="url(#clip43)" clip-rule="nonzero">
<path style=" stroke:none;fill-rule:evenodd;fill:rgb(8.239746%,39.608765%,75.289917%);fill-opacity:1;" d="M 11.914062 23.023438 L 32.714844 43.824219 L 32.285156 43.824219 L 11.488281 23.023438 L 11.914062 23.023438 "/>
</g>
</g>
<g clip-path="url(#clip44)" clip-rule="nonzero">
<g clip-path="url(#clip45)" clip-rule="nonzero">
<path style=" stroke:none;fill-rule:evenodd;fill:rgb(8.239746%,39.608765%,75.289917%);fill-opacity:1;" d="M 11.488281 29.003906 L 32.285156 49.804688 L 31.859375 49.804688 L 11.058594 29.003906 L 11.488281 29.003906 "/>
</g>
</g>
<g clip-path="url(#clip46)" clip-rule="nonzero">
<g clip-path="url(#clip47)" clip-rule="nonzero">
<path style=" stroke:none;fill-rule:evenodd;fill:rgb(8.239746%,39.608765%,75.289917%);fill-opacity:1;" d="M 11.488281 23.023438 L 32.285156 43.824219 L 31.859375 43.824219 L 11.058594 23.023438 L 11.488281 23.023438 "/>
</g>
</g>
<g clip-path="url(#clip48)" clip-rule="nonzero">
<g clip-path="url(#clip49)" clip-rule="nonzero">
<path style=" stroke:none;fill-rule:evenodd;fill:rgb(8.239746%,39.608765%,75.289917%);fill-opacity:1;" d="M 11.914062 18.324219 L 32.714844 39.125 L 32.285156 39.125 L 11.488281 18.324219 L 11.914062 18.324219 "/>
</g>
</g>
<g clip-path="url(#clip50)" clip-rule="nonzero">
<g clip-path="url(#clip51)" clip-rule="nonzero">
<path style=" stroke:none;fill-rule:evenodd;fill:rgb(8.239746%,39.608765%,75.289917%);fill-opacity:1;" d="M 11.488281 18.324219 L 32.285156 39.125 L 31.859375 39.125 L 11.058594 18.324219 L 11.488281 18.324219 "/>
</g>
</g>
<g clip-path="url(#clip52)" clip-rule="nonzero">
<g clip-path="url(#clip53)" clip-rule="nonzero">
<path style=" stroke:none;fill-rule:evenodd;fill:rgb(8.239746%,39.608765%,75.289917%);fill-opacity:1;" d="M 26.015625 29.003906 L 46.8125 49.804688 L 32.285156 49.804688 L 11.488281 29.003906 L 26.015625 29.003906 "/>
</g>
</g>
<g clip-path="url(#clip54)" clip-rule="nonzero">
<g clip-path="url(#clip55)" clip-rule="nonzero">
<path style=" stroke:none;fill-rule:evenodd;fill:rgb(8.239746%,39.608765%,75.289917%);fill-opacity:1;" d="M 17.042969 8.496094 L 37.839844 29.296875 L 37.839844 29.722656 L 17.042969 8.921875 L 17.042969 8.496094 "/>
</g>
</g>
<g clip-path="url(#clip56)" clip-rule="nonzero">
<g clip-path="url(#clip57)" clip-rule="nonzero">
<path style=" stroke:none;fill-rule:evenodd;fill:rgb(8.239746%,39.608765%,75.289917%);fill-opacity:1;" d="M 26.441406 18.324219 L 47.242188 39.125 L 46.8125 39.125 L 26.015625 18.324219 L 26.441406 18.324219 "/>
</g>
</g>
<g clip-path="url(#clip58)" clip-rule="nonzero">
<g clip-path="url(#clip59)" clip-rule="nonzero">
<path style=" stroke:none;fill-rule:evenodd;fill:rgb(8.239746%,39.608765%,75.289917%);fill-opacity:1;" d="M 26.441406 20.03125 L 47.242188 40.832031 L 47.242188 43.394531 L 26.441406 22.597656 L 26.441406 20.03125 "/>
</g>
</g>
<g clip-path="url(#clip60)" clip-rule="nonzero">
<g clip-path="url(#clip61)" clip-rule="nonzero">
<path style=" stroke:none;fill-rule:evenodd;fill:rgb(8.239746%,39.608765%,75.289917%);fill-opacity:1;" d="M 20.460938 8.496094 L 23.464844 8.496094 L 23.480469 8.910156 C 23.515625 9.917969 23.710938 10.886719 24.148438 11.792969 C 24.582031 12.695312 25.261719 13.546875 26.273438 14.316406 L 26.441406 14.445312 L 26.441406 18.324219 L 25.585938 18.324219 L 25.585938 19.605469 L 26.441406 19.605469 L 26.441406 23.023438 L 25.585938 23.023438 L 25.585938 24.304688 L 26.441406 24.304688 L 26.441406 29.003906 L 11.058594 29.003906 L 11.058594 24.304688 L 11.914062 24.304688 L 11.914062 23.023438 L 11.058594 23.023438 L 11.058594 19.605469 L 11.914062 19.605469 L 11.914062 18.324219 L 11.058594 18.324219 L 11.058594 14.339844 L 11.367188 14.246094 C 12.480469 13.914062 13.183594 13.265625 13.582031 12.386719 C 14 11.46875 14.109375 10.289062 14.023438 8.949219 L 13.992188 8.496094 L 17.042969 8.496094 L 17.042969 11.058594 C 17.042969 11.53125 17.234375 11.957031 17.542969 12.265625 C 17.855469 12.578125 18.28125 12.769531 18.75 12.769531 C 19.21875 12.769531 19.648438 12.578125 19.957031 12.265625 C 20.265625 11.957031 20.460938 11.53125 20.460938 11.058594 L 20.460938 8.496094 "/>
</g>
</g>
<path style=" stroke:none;fill-rule:evenodd;fill:rgb(65.489197%,66.668701%,38.42926%);fill-opacity:1;" d="M 20.460938 8.496094 L 23.464844 8.496094 L 23.480469 8.910156 C 23.515625 9.917969 23.710938 10.886719 24.148438 11.792969 C 24.582031 12.695312 25.261719 13.546875 26.273438 14.316406 L 26.441406 14.445312 L 26.441406 18.324219 L 25.585938 18.324219 L 25.585938 19.605469 L 26.441406 19.605469 L 26.441406 23.023438 L 25.585938 23.023438 L 25.585938 24.304688 L 26.441406 24.304688 L 26.441406 29.003906 L 11.058594 29.003906 L 11.058594 24.304688 L 11.914062 24.304688 L 11.914062 23.023438 L 11.058594 23.023438 L 11.058594 19.605469 L 11.914062 19.605469 L 11.914062 18.324219 L 11.058594 18.324219 L 11.058594 14.339844 L 11.367188 14.246094 C 12.480469 13.914062 13.183594 13.265625 13.582031 12.386719 C 14 11.46875 14.109375 10.289062 14.023438 8.949219 L 13.992188 8.496094 L 17.042969 8.496094 L 17.042969 11.058594 C 17.042969 11.53125 17.234375 11.957031 17.542969 12.265625 C 17.855469 12.578125 18.28125 12.769531 18.75 12.769531 C 19.21875 12.769531 19.648438 12.578125 19.957031 12.265625 C 20.265625 11.957031 20.460938 11.53125 20.460938 11.058594 L 20.460938 8.496094 "/>
<path style=" stroke:none;fill-rule:evenodd;fill:rgb(42.749023%,45.098877%,9.01947%);fill-opacity:1;" d="M 11.914062 23.449219 L 14.253906 23.449219 L 14.253906 22.597656 L 17.671875 22.597656 L 17.671875 23.449219 L 18.324219 23.449219 L 18.324219 19.515625 L 17.671875 19.515625 L 17.671875 20.367188 L 14.253906 20.367188 L 14.253906 19.515625 L 11.914062 19.515625 L 11.914062 18.660156 L 14.253906 18.660156 L 14.253906 17.804688 L 17.671875 17.804688 L 17.671875 18.660156 L 18.324219 18.660156 L 18.324219 13.195312 L 19.179688 13.195312 L 19.179688 18.660156 L 19.828125 18.660156 L 19.828125 17.804688 L 23.25 17.804688 L 23.25 18.660156 L 25.585938 18.660156 L 25.585938 19.515625 L 23.25 19.515625 L 23.25 20.367188 L 19.828125 20.367188 L 19.828125 19.515625 L 19.179688 19.515625 L 19.179688 23.449219 L 19.828125 23.449219 L 19.828125 22.597656 L 23.25 22.597656 L 23.25 23.449219 L 25.585938 23.449219 L 25.585938 24.304688 L 23.25 24.304688 L 23.25 25.160156 L 19.828125 25.160156 L 19.828125 24.304688 L 19.179688 24.304688 L 19.179688 28.578125 L 18.324219 28.578125 L 18.324219 24.304688 L 17.671875 24.304688 L 17.671875 25.160156 L 14.253906 25.160156 L 14.253906 24.304688 L 11.914062 24.304688 L 11.914062 23.449219 "/>
<path style=" stroke:none;fill-rule:evenodd;fill:rgb(25.878906%,25.878906%,25.878906%);fill-opacity:1;" d="M 17.019531 23.347656 L 14.90625 23.347656 L 14.90625 24.40625 L 17.019531 24.40625 L 17.019531 23.347656 "/>
<path style=" stroke:none;fill-rule:evenodd;fill:rgb(25.878906%,25.878906%,25.878906%);fill-opacity:1;" d="M 17.019531 18.558594 L 14.90625 18.558594 L 14.90625 19.617188 L 17.019531 19.617188 L 17.019531 18.558594 "/>
<path style=" stroke:none;fill-rule:evenodd;fill:rgb(25.878906%,25.878906%,25.878906%);fill-opacity:1;" d="M 22.597656 18.558594 L 20.480469 18.558594 L 20.480469 19.617188 L 22.597656 19.617188 L 22.597656 18.558594 "/>
<path style=" stroke:none;fill-rule:evenodd;fill:rgb(25.878906%,25.878906%,25.878906%);fill-opacity:1;" d="M 22.597656 23.347656 L 20.480469 23.347656 L 20.480469 24.40625 L 22.597656 24.40625 L 22.597656 23.347656 "/>
</g>
</svg>
