<?xml version="1.0" encoding="UTF-8"?>
<svg xmlns="http://www.w3.org/2000/svg" xmlns:xlink="http://www.w3.org/1999/xlink" width="37.5pt" height="37.499999pt" viewBox="0 0 37.5 37.499999" version="1.2">
<defs>
<clipPath id="clip1">
  <path d="M 0 0 L 37.007812 0 L 37.007812 37.007812 L 0 37.007812 Z M 0 0 "/>
</clipPath>
</defs>
<g id="surface1">
<path style=" stroke:none;fill-rule:nonzero;fill:rgb(0%,0%,0%);fill-opacity:1;" d="M 29.875 15.363281 C 29.5 15.019531 29.082031 14.925781 28.171875 14.738281 C 27.484375 14.597656 26.777344 14.523438 26.074219 14.523438 C 25.761719 14.523438 25.46875 14.539062 25.179688 14.566406 C 23.769531 14.707031 22.65625 14.816406 21.933594 15.617188 C 21.824219 15.738281 21.550781 16.078125 21.375 16.589844 C 21.105469 17.398438 21.273438 18.085938 21.421875 18.691406 C 21.5 19.011719 21.734375 19.976562 22.515625 20.890625 C 23.492188 22.03125 24.695312 22.648438 26 22.675781 L 26.085938 22.675781 C 27.546875 22.675781 28.601562 21.929688 29.101562 21.488281 C 30.507812 20.234375 30.8125 18.417969 30.632812 17.136719 C 30.5625 16.640625 30.453125 15.886719 29.875 15.363281 Z M 29.875 15.363281 "/>
<path style=" stroke:none;fill-rule:nonzero;fill:rgb(0%,0%,0%);fill-opacity:1;" d="M 15.566406 15.617188 C 14.84375 14.816406 13.730469 14.707031 12.320312 14.566406 C 12.03125 14.539062 11.738281 14.523438 11.425781 14.523438 C 10.722656 14.523438 10.015625 14.597656 9.328125 14.738281 C 8.417969 14.925781 8 15.019531 7.625 15.363281 C 7.046875 15.886719 6.9375 16.640625 6.867188 17.136719 C 6.6875 18.417969 6.992188 20.234375 8.398438 21.488281 C 8.800781 21.84375 9.898438 22.675781 11.414062 22.675781 L 11.5 22.675781 C 12.804688 22.648438 14.007812 22.03125 14.984375 20.890625 C 15.765625 19.976562 16 19.011719 16.078125 18.691406 C 16.226562 18.085938 16.394531 17.398438 16.125 16.589844 C 15.949219 16.078125 15.675781 15.738281 15.566406 15.617188 Z M 15.566406 15.617188 "/>
<g clip-path="url(#clip1)" clip-rule="nonzero">
<path style=" stroke:none;fill-rule:nonzero;fill:rgb(0%,0%,0%);fill-opacity:1;" d="M 18.75 -0.148438 C 8.394531 -0.148438 0 8.246094 0 18.601562 C 0 28.957031 8.394531 37.351562 18.75 37.351562 C 29.105469 37.351562 37.5 28.957031 37.5 18.601562 C 37.5 8.246094 29.105469 -0.148438 18.75 -0.148438 Z M 32.683594 16.871094 L 31.902344 16.871094 C 31.90625 16.898438 31.910156 16.929688 31.914062 16.953125 C 32.144531 18.570312 31.753906 20.863281 29.960938 22.453125 C 29.324219 23.023438 27.976562 23.972656 26.085938 23.972656 C 26.085938 23.972656 26.085938 23.972656 26.082031 23.972656 L 25.976562 23.96875 C 24.316406 23.9375 22.738281 23.144531 21.53125 21.730469 C 20.550781 20.582031 20.257812 19.394531 20.164062 19 C 20.003906 18.347656 19.765625 17.359375 20.136719 16.214844 C 20.007812 16.152344 19.875 16.09375 19.738281 16.046875 C 19.421875 15.9375 19.085938 15.871094 18.75 15.851562 C 18.414062 15.871094 18.078125 15.9375 17.761719 16.046875 C 17.625 16.09375 17.492188 16.152344 17.363281 16.214844 C 17.738281 17.359375 17.496094 18.347656 17.335938 19 C 17.242188 19.394531 16.949219 20.582031 15.96875 21.730469 C 14.761719 23.144531 13.183594 23.9375 11.523438 23.96875 L 11.414062 23.972656 C 9.523438 23.972656 8.175781 23.023438 7.539062 22.457031 C 5.746094 20.863281 5.355469 18.570312 5.585938 16.953125 C 5.589844 16.929688 5.59375 16.898438 5.597656 16.871094 L 4.816406 16.871094 C 4.457031 16.871094 4.167969 16.582031 4.167969 16.222656 C 4.167969 15.867188 4.457031 15.574219 4.816406 15.574219 L 5.9375 15.574219 C 6.109375 15.175781 6.359375 14.761719 6.75 14.402344 C 7.40625 13.808594 8.105469 13.664062 9.070312 13.46875 C 10.191406 13.238281 11.378906 13.171875 12.445312 13.277344 C 14 13.429688 15.46875 13.574219 16.527344 14.75 C 16.59375 14.824219 16.679688 14.929688 16.773438 15.054688 C 16.957031 14.964844 17.144531 14.886719 17.335938 14.820312 C 17.78125 14.667969 18.25 14.578125 18.71875 14.554688 C 18.730469 14.554688 18.742188 14.558594 18.753906 14.558594 C 18.761719 14.558594 18.769531 14.554688 18.78125 14.554688 C 19.25 14.578125 19.71875 14.667969 20.164062 14.820312 C 20.355469 14.886719 20.542969 14.964844 20.726562 15.054688 C 20.820312 14.929688 20.90625 14.824219 20.972656 14.75 C 22.03125 13.574219 23.5 13.429688 25.054688 13.277344 C 26.121094 13.171875 27.308594 13.238281 28.429688 13.46875 C 29.394531 13.664062 30.09375 13.808594 30.75 14.402344 C 31.140625 14.761719 31.390625 15.175781 31.5625 15.574219 L 32.683594 15.574219 C 33.042969 15.574219 33.332031 15.867188 33.332031 16.222656 C 33.332031 16.582031 33.042969 16.871094 32.683594 16.871094 Z M 32.683594 16.871094 "/>
</g>
</g>
</svg>
