<?xml version="1.0" encoding="UTF-8"?>
<svg xmlns="http://www.w3.org/2000/svg" xmlns:xlink="http://www.w3.org/1999/xlink" width="37.5pt" height="37.499999pt" viewBox="0 0 37.5 37.499999" version="1.2">
<defs>
<clipPath id="clip1">
  <path d="M 17 0 L 20 0 L 20 37.007812 L 17 37.007812 Z M 17 0 "/>
</clipPath>
<clipPath id="clip2">
  <path d="M 0 0 L 37.007812 0 L 37.007812 37.007812 L 0 37.007812 Z M 0 0 "/>
</clipPath>
<clipPath id="clip3">
  <path d="M 21 35 L 24 35 L 24 37.007812 L 21 37.007812 Z M 21 35 "/>
</clipPath>
<clipPath id="clip4">
  <path d="M 21 35 L 24 35 L 24 37.007812 L 21 37.007812 Z M 21 35 "/>
</clipPath>
<clipPath id="clip5">
  <path d="M 35 14 L 37.007812 14 L 37.007812 17 L 35 17 Z M 35 14 "/>
</clipPath>
<clipPath id="clip6">
  <path d="M 14 35 L 17 35 L 17 37.007812 L 14 37.007812 Z M 14 35 "/>
</clipPath>
<clipPath id="clip7">
  <path d="M 14 35 L 17 35 L 17 37.007812 L 14 37.007812 Z M 14 35 "/>
</clipPath>
<clipPath id="clip8">
  <path d="M 35 21 L 37.007812 21 L 37.007812 24 L 35 24 Z M 35 21 "/>
</clipPath>
</defs>
<g id="surface1">
<path style=" stroke:none;fill-rule:nonzero;fill:rgb(27.839661%,53.329468%,78.039551%);fill-opacity:1;" d="M 18.699219 14.8125 C 20.871094 14.8125 22.636719 16.578125 22.636719 18.75 C 22.636719 20.921875 20.871094 22.6875 18.699219 22.6875 C 16.53125 22.6875 14.765625 20.921875 14.765625 18.75 C 14.765625 16.578125 16.53125 14.8125 18.699219 14.8125 M 18.699219 11.859375 C 14.894531 11.859375 11.8125 14.945312 11.8125 18.75 C 11.8125 22.554688 14.894531 25.640625 18.699219 25.640625 C 22.507812 25.640625 25.589844 22.554688 25.589844 18.75 C 25.589844 14.945312 22.507812 11.859375 18.699219 11.859375 Z M 18.699219 11.859375 "/>
<path style=" stroke:none;fill-rule:nonzero;fill:rgb(59.609985%,79.998779%,99.21875%);fill-opacity:1;" d="M 18.699219 7.921875 C 24.671875 7.921875 29.527344 12.78125 29.527344 18.75 C 29.527344 24.71875 24.671875 29.578125 18.699219 29.578125 C 12.730469 29.578125 7.875 24.71875 7.875 18.75 C 7.875 12.78125 12.730469 7.921875 18.699219 7.921875 M 18.699219 5.953125 C 11.632812 5.953125 5.90625 11.683594 5.90625 18.75 C 5.90625 25.816406 11.632812 31.546875 18.699219 31.546875 C 25.769531 31.546875 31.496094 25.816406 31.496094 18.75 C 31.496094 11.683594 25.769531 5.953125 18.699219 5.953125 Z M 18.699219 5.953125 "/>
<g clip-path="url(#clip1)" clip-rule="nonzero">
<path style=" stroke:none;fill-rule:nonzero;fill:rgb(27.839661%,53.329468%,78.039551%);fill-opacity:1;" d="M 18.699219 0.0507812 C 18.570312 0.0507812 18.445312 0.0742188 18.324219 0.125 C 18.203125 0.175781 18.097656 0.246094 18.003906 0.335938 C 17.914062 0.429688 17.839844 0.535156 17.792969 0.65625 C 17.742188 0.777344 17.714844 0.902344 17.714844 1.035156 C 17.714844 1.164062 17.742188 1.289062 17.792969 1.410156 C 17.839844 1.53125 17.914062 1.636719 18.003906 1.730469 C 18.097656 1.820312 18.203125 1.894531 18.324219 1.941406 C 18.445312 1.992188 18.570312 2.019531 18.699219 2.019531 C 18.832031 2.019531 18.957031 1.992188 19.078125 1.941406 C 19.199219 1.894531 19.304688 1.820312 19.398438 1.730469 C 19.488281 1.636719 19.558594 1.53125 19.609375 1.410156 C 19.660156 1.289062 19.683594 1.164062 19.683594 1.035156 C 19.683594 0.902344 19.660156 0.777344 19.609375 0.65625 C 19.558594 0.535156 19.488281 0.429688 19.398438 0.335938 C 19.304688 0.246094 19.199219 0.175781 19.078125 0.125 C 18.957031 0.0742188 18.832031 0.0507812 18.699219 0.0507812 Z M 18.699219 35.480469 C 18.570312 35.480469 18.445312 35.507812 18.324219 35.558594 C 18.203125 35.605469 18.097656 35.679688 18.003906 35.769531 C 17.914062 35.863281 17.839844 35.96875 17.792969 36.089844 C 17.742188 36.210938 17.714844 36.335938 17.714844 36.464844 C 17.714844 36.597656 17.742188 36.722656 17.792969 36.84375 C 17.839844 36.964844 17.914062 37.070312 18.003906 37.164062 C 18.097656 37.253906 18.203125 37.324219 18.324219 37.375 C 18.445312 37.425781 18.570312 37.449219 18.699219 37.449219 C 18.832031 37.449219 18.957031 37.425781 19.078125 37.375 C 19.199219 37.324219 19.304688 37.253906 19.398438 37.164062 C 19.488281 37.070312 19.558594 36.964844 19.609375 36.84375 C 19.660156 36.722656 19.683594 36.597656 19.683594 36.464844 C 19.683594 36.335938 19.660156 36.210938 19.609375 36.089844 C 19.558594 35.96875 19.488281 35.863281 19.398438 35.769531 C 19.304688 35.679688 19.199219 35.605469 19.078125 35.558594 C 18.957031 35.507812 18.832031 35.480469 18.699219 35.480469 Z M 18.699219 35.480469 "/>
</g>
<g clip-path="url(#clip2)" clip-rule="nonzero">
<path style=" stroke:none;fill-rule:nonzero;fill:rgb(27.839661%,53.329468%,78.039551%);fill-opacity:1;" d="M 18.699219 0.0507812 C 18.570312 0.0507812 18.445312 0.0742188 18.324219 0.125 C 18.203125 0.175781 18.097656 0.246094 18.003906 0.335938 C 17.914062 0.429688 17.839844 0.535156 17.792969 0.65625 C 17.742188 0.777344 17.714844 0.902344 17.714844 1.035156 C 17.714844 1.164062 17.742188 1.289062 17.792969 1.410156 C 17.839844 1.53125 17.914062 1.636719 18.003906 1.730469 C 18.097656 1.820312 18.203125 1.894531 18.324219 1.941406 C 18.445312 1.992188 18.570312 2.019531 18.699219 2.019531 C 18.832031 2.019531 18.957031 1.992188 19.078125 1.941406 C 19.199219 1.894531 19.304688 1.820312 19.398438 1.730469 C 19.488281 1.636719 19.558594 1.53125 19.609375 1.410156 C 19.660156 1.289062 19.683594 1.164062 19.683594 1.035156 C 19.683594 0.902344 19.660156 0.777344 19.609375 0.65625 C 19.558594 0.535156 19.488281 0.429688 19.398438 0.335938 C 19.304688 0.246094 19.199219 0.175781 19.078125 0.125 C 18.957031 0.0742188 18.832031 0.0507812 18.699219 0.0507812 Z M 18.699219 35.480469 C 18.570312 35.480469 18.445312 35.507812 18.324219 35.558594 C 18.203125 35.605469 18.097656 35.679688 18.003906 35.769531 C 17.914062 35.863281 17.839844 35.96875 17.792969 36.089844 C 17.742188 36.210938 17.714844 36.335938 17.714844 36.464844 C 17.714844 36.597656 17.742188 36.722656 17.792969 36.84375 C 17.839844 36.964844 17.914062 37.070312 18.003906 37.164062 C 18.097656 37.253906 18.203125 37.324219 18.324219 37.375 C 18.445312 37.425781 18.570312 37.449219 18.699219 37.449219 C 18.832031 37.449219 18.957031 37.425781 19.078125 37.375 C 19.199219 37.324219 19.304688 37.253906 19.398438 37.164062 C 19.488281 37.070312 19.558594 36.964844 19.609375 36.84375 C 19.660156 36.722656 19.683594 36.597656 19.683594 36.464844 C 19.683594 36.335938 19.660156 36.210938 19.609375 36.089844 C 19.558594 35.96875 19.488281 35.863281 19.398438 35.769531 C 19.304688 35.679688 19.199219 35.605469 19.078125 35.558594 C 18.957031 35.507812 18.832031 35.480469 18.699219 35.480469 Z M 36.417969 17.765625 C 36.285156 17.765625 36.160156 17.789062 36.039062 17.839844 C 35.921875 17.890625 35.8125 17.960938 35.722656 18.054688 C 35.628906 18.144531 35.558594 18.253906 35.507812 18.375 C 35.457031 18.492188 35.433594 18.621094 35.433594 18.75 C 35.433594 18.878906 35.457031 19.007812 35.507812 19.125 C 35.558594 19.246094 35.628906 19.355469 35.722656 19.445312 C 35.8125 19.539062 35.921875 19.609375 36.039062 19.660156 C 36.160156 19.710938 36.285156 19.734375 36.417969 19.734375 C 36.546875 19.734375 36.671875 19.710938 36.792969 19.660156 C 36.914062 19.609375 37.019531 19.539062 37.113281 19.445312 C 37.207031 19.355469 37.277344 19.246094 37.328125 19.125 C 37.375 19.007812 37.402344 18.878906 37.402344 18.75 C 37.402344 18.621094 37.375 18.492188 37.328125 18.375 C 37.277344 18.253906 37.207031 18.144531 37.113281 18.054688 C 37.019531 17.960938 36.914062 17.890625 36.792969 17.839844 C 36.671875 17.789062 36.546875 17.765625 36.417969 17.765625 Z M 0.984375 17.765625 C 0.855469 17.765625 0.726562 17.789062 0.609375 17.839844 C 0.488281 17.890625 0.378906 17.960938 0.289062 18.054688 C 0.195312 18.144531 0.125 18.253906 0.0742188 18.375 C 0.0234375 18.492188 0 18.621094 0 18.75 C 0 18.878906 0.0234375 19.007812 0.0742188 19.125 C 0.125 19.246094 0.195312 19.355469 0.289062 19.445312 C 0.378906 19.539062 0.488281 19.609375 0.609375 19.660156 C 0.726562 19.710938 0.855469 19.734375 0.984375 19.734375 C 1.113281 19.734375 1.242188 19.710938 1.359375 19.660156 C 1.480469 19.609375 1.589844 19.539062 1.679688 19.445312 C 1.773438 19.355469 1.84375 19.246094 1.894531 19.125 C 1.945312 19.007812 1.96875 18.878906 1.96875 18.75 C 1.96875 18.621094 1.945312 18.492188 1.894531 18.375 C 1.84375 18.253906 1.773438 18.144531 1.679688 18.054688 C 1.589844 17.960938 1.480469 17.890625 1.359375 17.839844 C 1.242188 17.789062 1.113281 17.765625 0.984375 17.765625 Z M 0.984375 17.765625 "/>
</g>
<path style=" stroke:none;fill-rule:nonzero;fill:rgb(27.839661%,53.329468%,78.039551%);fill-opacity:1;" d="M 30.53125 5.527344 C 30.441406 5.617188 30.367188 5.726562 30.320312 5.847656 C 30.269531 5.964844 30.242188 6.09375 30.242188 6.222656 C 30.242188 6.351562 30.269531 6.480469 30.320312 6.597656 C 30.367188 6.71875 30.441406 6.824219 30.53125 6.917969 C 30.625 7.011719 30.730469 7.082031 30.851562 7.132812 C 30.972656 7.183594 31.097656 7.207031 31.226562 7.207031 C 31.359375 7.207031 31.484375 7.183594 31.605469 7.132812 C 31.726562 7.082031 31.832031 7.011719 31.925781 6.917969 C 32.015625 6.824219 32.085938 6.71875 32.136719 6.597656 C 32.1875 6.476562 32.210938 6.351562 32.210938 6.222656 C 32.210938 6.09375 32.1875 5.964844 32.136719 5.847656 C 32.085938 5.726562 32.015625 5.617188 31.925781 5.527344 C 31.832031 5.433594 31.726562 5.363281 31.605469 5.3125 C 31.484375 5.261719 31.359375 5.238281 31.226562 5.238281 C 31.097656 5.238281 30.972656 5.261719 30.851562 5.3125 C 30.730469 5.363281 30.625 5.433594 30.53125 5.527344 Z M 30.53125 5.527344 "/>
<path style=" stroke:none;fill-rule:nonzero;fill:rgb(27.839661%,53.329468%,78.039551%);fill-opacity:1;" d="M 5.476562 30.582031 C 5.386719 30.675781 5.3125 30.78125 5.265625 30.902344 C 5.214844 31.023438 5.1875 31.148438 5.1875 31.277344 C 5.1875 31.40625 5.214844 31.535156 5.265625 31.652344 C 5.3125 31.773438 5.386719 31.882812 5.476562 31.972656 C 5.570312 32.066406 5.675781 32.136719 5.796875 32.1875 C 5.917969 32.238281 6.042969 32.261719 6.171875 32.261719 C 6.304688 32.261719 6.429688 32.238281 6.550781 32.1875 C 6.671875 32.136719 6.777344 32.066406 6.871094 31.972656 C 6.960938 31.882812 7.03125 31.773438 7.082031 31.652344 C 7.132812 31.535156 7.15625 31.40625 7.15625 31.277344 C 7.15625 31.148438 7.132812 31.019531 7.082031 30.902344 C 7.03125 30.78125 6.960938 30.675781 6.871094 30.582031 C 6.777344 30.488281 6.671875 30.417969 6.550781 30.367188 C 6.429688 30.316406 6.304688 30.292969 6.171875 30.292969 C 6.042969 30.292969 5.917969 30.316406 5.796875 30.367188 C 5.675781 30.417969 5.570312 30.488281 5.476562 30.582031 Z M 5.476562 30.582031 "/>
<path style=" stroke:none;fill-rule:nonzero;fill:rgb(27.839661%,53.329468%,78.039551%);fill-opacity:1;" d="M 30.53125 5.527344 C 30.441406 5.617188 30.367188 5.726562 30.320312 5.847656 C 30.269531 5.964844 30.242188 6.09375 30.242188 6.222656 C 30.242188 6.351562 30.269531 6.480469 30.320312 6.597656 C 30.367188 6.71875 30.441406 6.824219 30.53125 6.917969 C 30.625 7.011719 30.730469 7.082031 30.851562 7.132812 C 30.972656 7.183594 31.097656 7.207031 31.226562 7.207031 C 31.359375 7.207031 31.484375 7.183594 31.605469 7.132812 C 31.726562 7.082031 31.832031 7.011719 31.925781 6.917969 C 32.015625 6.824219 32.085938 6.71875 32.136719 6.597656 C 32.1875 6.476562 32.210938 6.351562 32.210938 6.222656 C 32.210938 6.09375 32.1875 5.964844 32.136719 5.847656 C 32.085938 5.726562 32.015625 5.617188 31.925781 5.527344 C 31.832031 5.433594 31.726562 5.363281 31.605469 5.3125 C 31.484375 5.261719 31.359375 5.238281 31.226562 5.238281 C 31.097656 5.238281 30.972656 5.261719 30.851562 5.3125 C 30.730469 5.363281 30.625 5.433594 30.53125 5.527344 Z M 30.53125 5.527344 "/>
<path style=" stroke:none;fill-rule:nonzero;fill:rgb(27.839661%,53.329468%,78.039551%);fill-opacity:1;" d="M 5.476562 30.582031 C 5.386719 30.675781 5.3125 30.78125 5.265625 30.902344 C 5.214844 31.023438 5.1875 31.148438 5.1875 31.277344 C 5.1875 31.40625 5.214844 31.535156 5.265625 31.652344 C 5.3125 31.773438 5.386719 31.882812 5.476562 31.972656 C 5.570312 32.066406 5.675781 32.136719 5.796875 32.1875 C 5.917969 32.238281 6.042969 32.261719 6.171875 32.261719 C 6.304688 32.261719 6.429688 32.238281 6.550781 32.1875 C 6.671875 32.136719 6.777344 32.066406 6.871094 31.972656 C 6.960938 31.882812 7.03125 31.773438 7.082031 31.652344 C 7.132812 31.535156 7.15625 31.40625 7.15625 31.277344 C 7.15625 31.148438 7.132812 31.019531 7.082031 30.902344 C 7.03125 30.78125 6.960938 30.675781 6.871094 30.582031 C 6.777344 30.488281 6.671875 30.417969 6.550781 30.367188 C 6.429688 30.316406 6.304688 30.292969 6.171875 30.292969 C 6.042969 30.292969 5.917969 30.316406 5.796875 30.367188 C 5.675781 30.417969 5.570312 30.488281 5.476562 30.582031 Z M 5.476562 30.582031 "/>
<path style=" stroke:none;fill-rule:nonzero;fill:rgb(27.839661%,53.329468%,78.039551%);fill-opacity:1;" d="M 30.53125 30.582031 C 30.441406 30.675781 30.367188 30.78125 30.320312 30.902344 C 30.269531 31.023438 30.242188 31.148438 30.242188 31.277344 C 30.242188 31.40625 30.269531 31.535156 30.320312 31.652344 C 30.367188 31.773438 30.441406 31.882812 30.53125 31.972656 C 30.625 32.066406 30.730469 32.136719 30.851562 32.1875 C 30.972656 32.238281 31.097656 32.261719 31.226562 32.261719 C 31.359375 32.261719 31.484375 32.238281 31.605469 32.1875 C 31.726562 32.136719 31.832031 32.066406 31.925781 31.972656 C 32.015625 31.882812 32.085938 31.773438 32.136719 31.652344 C 32.1875 31.535156 32.210938 31.40625 32.210938 31.277344 C 32.210938 31.148438 32.1875 31.019531 32.136719 30.902344 C 32.085938 30.78125 32.015625 30.675781 31.925781 30.582031 C 31.832031 30.488281 31.726562 30.417969 31.605469 30.367188 C 31.484375 30.316406 31.359375 30.292969 31.226562 30.292969 C 31.097656 30.292969 30.972656 30.316406 30.851562 30.367188 C 30.730469 30.417969 30.625 30.488281 30.53125 30.582031 Z M 30.53125 30.582031 "/>
<path style=" stroke:none;fill-rule:nonzero;fill:rgb(27.839661%,53.329468%,78.039551%);fill-opacity:1;" d="M 5.476562 5.527344 C 5.386719 5.617188 5.3125 5.726562 5.265625 5.847656 C 5.214844 5.964844 5.1875 6.09375 5.1875 6.222656 C 5.1875 6.351562 5.214844 6.480469 5.265625 6.597656 C 5.3125 6.71875 5.386719 6.824219 5.476562 6.917969 C 5.570312 7.011719 5.675781 7.082031 5.796875 7.132812 C 5.917969 7.183594 6.042969 7.207031 6.171875 7.207031 C 6.304688 7.207031 6.429688 7.183594 6.550781 7.132812 C 6.671875 7.082031 6.777344 7.011719 6.871094 6.917969 C 6.960938 6.824219 7.03125 6.71875 7.082031 6.597656 C 7.132812 6.476562 7.15625 6.351562 7.15625 6.222656 C 7.15625 6.09375 7.132812 5.964844 7.082031 5.847656 C 7.03125 5.726562 6.960938 5.617188 6.871094 5.527344 C 6.777344 5.433594 6.671875 5.363281 6.550781 5.3125 C 6.429688 5.261719 6.304688 5.238281 6.171875 5.238281 C 6.042969 5.238281 5.917969 5.261719 5.796875 5.3125 C 5.675781 5.363281 5.570312 5.433594 5.476562 5.527344 Z M 5.476562 5.527344 "/>
<path style=" stroke:none;fill-rule:nonzero;fill:rgb(27.839661%,53.329468%,78.039551%);fill-opacity:1;" d="M 24.570312 2.003906 C 24.519531 2.125 24.496094 2.25 24.496094 2.382812 C 24.496094 2.511719 24.519531 2.636719 24.570312 2.757812 C 24.621094 2.878906 24.691406 2.984375 24.785156 3.078125 C 24.875 3.171875 24.984375 3.242188 25.105469 3.292969 C 25.222656 3.339844 25.351562 3.367188 25.480469 3.367188 C 25.609375 3.367188 25.738281 3.339844 25.855469 3.292969 C 25.976562 3.242188 26.085938 3.171875 26.175781 3.078125 C 26.269531 2.984375 26.339844 2.878906 26.390625 2.757812 C 26.441406 2.636719 26.464844 2.511719 26.464844 2.382812 C 26.464844 2.25 26.441406 2.125 26.390625 2.003906 C 26.339844 1.882812 26.269531 1.777344 26.175781 1.6875 C 26.085938 1.59375 25.976562 1.523438 25.855469 1.472656 C 25.738281 1.421875 25.609375 1.398438 25.480469 1.398438 C 25.351562 1.398438 25.222656 1.421875 25.105469 1.472656 C 24.984375 1.523438 24.875 1.59375 24.785156 1.6875 C 24.691406 1.777344 24.621094 1.882812 24.570312 2.003906 Z M 24.570312 2.003906 "/>
<path style=" stroke:none;fill-rule:nonzero;fill:rgb(27.839661%,53.329468%,78.039551%);fill-opacity:1;" d="M 11.011719 34.742188 C 10.960938 34.863281 10.9375 34.988281 10.9375 35.117188 C 10.9375 35.25 10.960938 35.375 11.011719 35.496094 C 11.0625 35.617188 11.132812 35.722656 11.226562 35.8125 C 11.316406 35.90625 11.425781 35.976562 11.542969 36.027344 C 11.664062 36.078125 11.789062 36.101562 11.921875 36.101562 C 12.050781 36.101562 12.175781 36.078125 12.296875 36.027344 C 12.417969 35.976562 12.523438 35.90625 12.617188 35.8125 C 12.710938 35.722656 12.78125 35.617188 12.832031 35.496094 C 12.878906 35.375 12.90625 35.25 12.90625 35.117188 C 12.90625 34.988281 12.878906 34.863281 12.832031 34.742188 C 12.78125 34.621094 12.710938 34.515625 12.617188 34.421875 C 12.523438 34.328125 12.417969 34.257812 12.296875 34.207031 C 12.175781 34.160156 12.050781 34.132812 11.921875 34.132812 C 11.789062 34.132812 11.664062 34.160156 11.542969 34.207031 C 11.425781 34.257812 11.316406 34.328125 11.226562 34.421875 C 11.132812 34.515625 11.0625 34.621094 11.011719 34.742188 Z M 11.011719 34.742188 "/>
<path style=" stroke:none;fill-rule:nonzero;fill:rgb(27.839661%,53.329468%,78.039551%);fill-opacity:1;" d="M 24.570312 2.003906 C 24.519531 2.125 24.496094 2.25 24.496094 2.382812 C 24.496094 2.511719 24.519531 2.636719 24.570312 2.757812 C 24.621094 2.878906 24.691406 2.984375 24.785156 3.078125 C 24.875 3.171875 24.984375 3.242188 25.105469 3.292969 C 25.222656 3.339844 25.351562 3.367188 25.480469 3.367188 C 25.609375 3.367188 25.738281 3.339844 25.855469 3.292969 C 25.976562 3.242188 26.085938 3.171875 26.175781 3.078125 C 26.269531 2.984375 26.339844 2.878906 26.390625 2.757812 C 26.441406 2.636719 26.464844 2.511719 26.464844 2.382812 C 26.464844 2.25 26.441406 2.125 26.390625 2.003906 C 26.339844 1.882812 26.269531 1.777344 26.175781 1.6875 C 26.085938 1.59375 25.976562 1.523438 25.855469 1.472656 C 25.738281 1.421875 25.609375 1.398438 25.480469 1.398438 C 25.351562 1.398438 25.222656 1.421875 25.105469 1.472656 C 24.984375 1.523438 24.875 1.59375 24.785156 1.6875 C 24.691406 1.777344 24.621094 1.882812 24.570312 2.003906 Z M 24.570312 2.003906 "/>
<path style=" stroke:none;fill-rule:nonzero;fill:rgb(27.839661%,53.329468%,78.039551%);fill-opacity:1;" d="M 11.011719 34.742188 C 10.960938 34.863281 10.9375 34.988281 10.9375 35.117188 C 10.9375 35.25 10.960938 35.375 11.011719 35.496094 C 11.0625 35.617188 11.132812 35.722656 11.226562 35.8125 C 11.316406 35.90625 11.425781 35.976562 11.542969 36.027344 C 11.664062 36.078125 11.789062 36.101562 11.921875 36.101562 C 12.050781 36.101562 12.175781 36.078125 12.296875 36.027344 C 12.417969 35.976562 12.523438 35.90625 12.617188 35.8125 C 12.710938 35.722656 12.78125 35.617188 12.832031 35.496094 C 12.878906 35.375 12.90625 35.25 12.90625 35.117188 C 12.90625 34.988281 12.878906 34.863281 12.832031 34.742188 C 12.78125 34.621094 12.710938 34.515625 12.617188 34.421875 C 12.523438 34.328125 12.417969 34.257812 12.296875 34.207031 C 12.175781 34.160156 12.050781 34.132812 11.921875 34.132812 C 11.789062 34.132812 11.664062 34.160156 11.542969 34.207031 C 11.425781 34.257812 11.316406 34.328125 11.226562 34.421875 C 11.132812 34.515625 11.0625 34.621094 11.011719 34.742188 Z M 11.011719 34.742188 "/>
<path style=" stroke:none;fill-rule:nonzero;fill:rgb(27.839661%,53.329468%,78.039551%);fill-opacity:1;" d="M 34.160156 25.152344 C 34.109375 25.273438 34.085938 25.398438 34.085938 25.53125 C 34.085938 25.660156 34.109375 25.785156 34.160156 25.90625 C 34.210938 26.027344 34.28125 26.132812 34.371094 26.226562 C 34.464844 26.316406 34.570312 26.390625 34.691406 26.4375 C 34.8125 26.488281 34.9375 26.515625 35.070312 26.515625 C 35.199219 26.515625 35.324219 26.488281 35.445312 26.4375 C 35.566406 26.390625 35.671875 26.316406 35.765625 26.226562 C 35.855469 26.132812 35.929688 26.027344 35.976562 25.90625 C 36.027344 25.785156 36.054688 25.660156 36.054688 25.53125 C 36.054688 25.398438 36.027344 25.273438 35.976562 25.152344 C 35.929688 25.03125 35.855469 24.925781 35.765625 24.832031 C 35.671875 24.742188 35.566406 24.671875 35.445312 24.621094 C 35.324219 24.570312 35.199219 24.546875 35.070312 24.546875 C 34.9375 24.546875 34.8125 24.570312 34.691406 24.621094 C 34.570312 24.671875 34.464844 24.742188 34.371094 24.832031 C 34.28125 24.925781 34.210938 25.03125 34.160156 25.152344 Z M 34.160156 25.152344 "/>
<path style=" stroke:none;fill-rule:nonzero;fill:rgb(27.839661%,53.329468%,78.039551%);fill-opacity:1;" d="M 1.425781 11.59375 C 1.375 11.714844 1.347656 11.839844 1.347656 11.96875 C 1.347656 12.101562 1.375 12.226562 1.425781 12.347656 C 1.472656 12.46875 1.546875 12.574219 1.636719 12.664062 C 1.730469 12.757812 1.835938 12.828125 1.957031 12.878906 C 2.078125 12.929688 2.203125 12.953125 2.332031 12.953125 C 2.464844 12.953125 2.589844 12.929688 2.710938 12.878906 C 2.832031 12.828125 2.9375 12.757812 3.03125 12.664062 C 3.121094 12.574219 3.191406 12.46875 3.242188 12.347656 C 3.292969 12.226562 3.316406 12.101562 3.316406 11.96875 C 3.316406 11.839844 3.292969 11.714844 3.242188 11.59375 C 3.191406 11.472656 3.121094 11.367188 3.03125 11.273438 C 2.9375 11.179688 2.832031 11.109375 2.710938 11.058594 C 2.589844 11.011719 2.464844 10.984375 2.332031 10.984375 C 2.203125 10.984375 2.078125 11.011719 1.957031 11.058594 C 1.835938 11.109375 1.730469 11.179688 1.636719 11.273438 C 1.546875 11.367188 1.472656 11.472656 1.425781 11.59375 Z M 1.425781 11.59375 "/>
<path style=" stroke:none;fill-rule:nonzero;fill:rgb(27.839661%,53.329468%,78.039551%);fill-opacity:1;" d="M 34.691406 11.058594 C 34.570312 11.109375 34.464844 11.179688 34.375 11.273438 C 34.28125 11.367188 34.210938 11.472656 34.160156 11.59375 C 34.109375 11.714844 34.085938 11.839844 34.085938 11.96875 C 34.085938 12.101562 34.109375 12.226562 34.160156 12.347656 C 34.210938 12.46875 34.28125 12.574219 34.375 12.664062 C 34.464844 12.757812 34.570312 12.828125 34.691406 12.878906 C 34.8125 12.929688 34.9375 12.953125 35.070312 12.953125 C 35.199219 12.953125 35.324219 12.929688 35.445312 12.878906 C 35.566406 12.828125 35.671875 12.757812 35.765625 12.664062 C 35.855469 12.574219 35.929688 12.46875 35.976562 12.347656 C 36.027344 12.226562 36.054688 12.101562 36.054688 11.96875 C 36.054688 11.839844 36.027344 11.714844 35.976562 11.59375 C 35.929688 11.472656 35.855469 11.367188 35.765625 11.273438 C 35.671875 11.179688 35.566406 11.109375 35.445312 11.058594 C 35.324219 11.011719 35.199219 10.984375 35.070312 10.984375 C 34.9375 10.984375 34.8125 11.011719 34.691406 11.058594 Z M 34.691406 11.058594 "/>
<path style=" stroke:none;fill-rule:nonzero;fill:rgb(27.839661%,53.329468%,78.039551%);fill-opacity:1;" d="M 1.957031 24.621094 C 1.835938 24.671875 1.730469 24.742188 1.636719 24.832031 C 1.542969 24.925781 1.472656 25.03125 1.421875 25.152344 C 1.375 25.273438 1.347656 25.398438 1.347656 25.53125 C 1.347656 25.660156 1.375 25.785156 1.421875 25.90625 C 1.472656 26.027344 1.542969 26.132812 1.636719 26.226562 C 1.730469 26.316406 1.835938 26.390625 1.957031 26.4375 C 2.078125 26.488281 2.203125 26.515625 2.332031 26.515625 C 2.464844 26.515625 2.589844 26.488281 2.710938 26.4375 C 2.832031 26.390625 2.9375 26.316406 3.027344 26.226562 C 3.121094 26.132812 3.191406 26.027344 3.242188 25.90625 C 3.292969 25.785156 3.316406 25.660156 3.316406 25.53125 C 3.316406 25.398438 3.292969 25.273438 3.242188 25.152344 C 3.191406 25.03125 3.121094 24.925781 3.027344 24.832031 C 2.9375 24.742188 2.832031 24.671875 2.710938 24.621094 C 2.589844 24.570312 2.464844 24.546875 2.332031 24.546875 C 2.203125 24.546875 2.078125 24.570312 1.957031 24.621094 Z M 1.957031 24.621094 "/>
<path style=" stroke:none;fill-rule:nonzero;fill:rgb(27.839661%,53.329468%,78.039551%);fill-opacity:1;" d="M 34.691406 11.058594 C 34.570312 11.109375 34.464844 11.179688 34.375 11.273438 C 34.28125 11.367188 34.210938 11.472656 34.160156 11.59375 C 34.109375 11.714844 34.085938 11.839844 34.085938 11.96875 C 34.085938 12.101562 34.109375 12.226562 34.160156 12.347656 C 34.210938 12.46875 34.28125 12.574219 34.375 12.664062 C 34.464844 12.757812 34.570312 12.828125 34.691406 12.878906 C 34.8125 12.929688 34.9375 12.953125 35.070312 12.953125 C 35.199219 12.953125 35.324219 12.929688 35.445312 12.878906 C 35.566406 12.828125 35.671875 12.757812 35.765625 12.664062 C 35.855469 12.574219 35.929688 12.46875 35.976562 12.347656 C 36.027344 12.226562 36.054688 12.101562 36.054688 11.96875 C 36.054688 11.839844 36.027344 11.714844 35.976562 11.59375 C 35.929688 11.472656 35.855469 11.367188 35.765625 11.273438 C 35.671875 11.179688 35.566406 11.109375 35.445312 11.058594 C 35.324219 11.011719 35.199219 10.984375 35.070312 10.984375 C 34.9375 10.984375 34.8125 11.011719 34.691406 11.058594 Z M 34.691406 11.058594 "/>
<path style=" stroke:none;fill-rule:nonzero;fill:rgb(27.839661%,53.329468%,78.039551%);fill-opacity:1;" d="M 1.957031 24.621094 C 1.835938 24.671875 1.730469 24.742188 1.636719 24.832031 C 1.542969 24.925781 1.472656 25.03125 1.421875 25.152344 C 1.375 25.273438 1.347656 25.398438 1.347656 25.53125 C 1.347656 25.660156 1.375 25.785156 1.421875 25.90625 C 1.472656 26.027344 1.542969 26.132812 1.636719 26.226562 C 1.730469 26.316406 1.835938 26.390625 1.957031 26.4375 C 2.078125 26.488281 2.203125 26.515625 2.332031 26.515625 C 2.464844 26.515625 2.589844 26.488281 2.710938 26.4375 C 2.832031 26.390625 2.9375 26.316406 3.027344 26.226562 C 3.121094 26.132812 3.191406 26.027344 3.242188 25.90625 C 3.292969 25.785156 3.316406 25.660156 3.316406 25.53125 C 3.316406 25.398438 3.292969 25.273438 3.242188 25.152344 C 3.191406 25.03125 3.121094 24.925781 3.027344 24.832031 C 2.9375 24.742188 2.832031 24.671875 2.710938 24.621094 C 2.589844 24.570312 2.464844 24.546875 2.332031 24.546875 C 2.203125 24.546875 2.078125 24.570312 1.957031 24.621094 Z M 1.957031 24.621094 "/>
<path style=" stroke:none;fill-rule:nonzero;fill:rgb(27.839661%,53.329468%,78.039551%);fill-opacity:1;" d="M 25.105469 34.207031 C 24.984375 34.257812 24.878906 34.328125 24.785156 34.421875 C 24.691406 34.515625 24.621094 34.621094 24.570312 34.742188 C 24.523438 34.863281 24.496094 34.988281 24.496094 35.117188 C 24.496094 35.25 24.523438 35.375 24.570312 35.496094 C 24.621094 35.613281 24.691406 35.722656 24.785156 35.8125 C 24.878906 35.90625 24.984375 35.976562 25.105469 36.027344 C 25.226562 36.078125 25.351562 36.101562 25.480469 36.101562 C 25.613281 36.101562 25.738281 36.078125 25.859375 36.027344 C 25.976562 35.976562 26.085938 35.90625 26.175781 35.8125 C 26.269531 35.722656 26.339844 35.613281 26.390625 35.496094 C 26.441406 35.375 26.464844 35.25 26.464844 35.117188 C 26.464844 34.988281 26.441406 34.863281 26.390625 34.742188 C 26.339844 34.621094 26.269531 34.515625 26.175781 34.421875 C 26.085938 34.328125 25.976562 34.257812 25.859375 34.207031 C 25.738281 34.160156 25.613281 34.132812 25.480469 34.132812 C 25.351562 34.132812 25.226562 34.160156 25.105469 34.207031 Z M 25.105469 34.207031 "/>
<path style=" stroke:none;fill-rule:nonzero;fill:rgb(27.839661%,53.329468%,78.039551%);fill-opacity:1;" d="M 11.542969 1.472656 C 11.425781 1.523438 11.316406 1.59375 11.226562 1.683594 C 11.132812 1.777344 11.0625 1.882812 11.011719 2.003906 C 10.960938 2.125 10.9375 2.25 10.9375 2.382812 C 10.9375 2.511719 10.960938 2.636719 11.011719 2.757812 C 11.0625 2.878906 11.132812 2.984375 11.226562 3.078125 C 11.316406 3.167969 11.425781 3.242188 11.542969 3.289062 C 11.664062 3.339844 11.789062 3.367188 11.921875 3.367188 C 12.050781 3.367188 12.175781 3.339844 12.296875 3.289062 C 12.417969 3.242188 12.523438 3.167969 12.617188 3.078125 C 12.710938 2.984375 12.78125 2.878906 12.832031 2.757812 C 12.878906 2.636719 12.90625 2.511719 12.90625 2.382812 C 12.90625 2.25 12.878906 2.125 12.832031 2.003906 C 12.78125 1.882812 12.710938 1.777344 12.617188 1.683594 C 12.523438 1.59375 12.417969 1.523438 12.296875 1.472656 C 12.175781 1.421875 12.050781 1.398438 11.921875 1.398438 C 11.789062 1.398438 11.664062 1.421875 11.542969 1.472656 Z M 11.542969 1.472656 "/>
<path style=" stroke:none;fill-rule:nonzero;fill:rgb(27.839661%,53.329468%,78.039551%);fill-opacity:1;" d="M 15.050781 0.410156 C 14.925781 0.433594 14.804688 0.484375 14.699219 0.554688 C 14.589844 0.628906 14.5 0.71875 14.425781 0.828125 C 14.355469 0.9375 14.304688 1.054688 14.277344 1.183594 C 14.253906 1.308594 14.253906 1.4375 14.277344 1.566406 C 14.304688 1.695312 14.355469 1.8125 14.425781 1.921875 C 14.5 2.027344 14.589844 2.121094 14.699219 2.191406 C 14.804688 2.265625 14.925781 2.3125 15.050781 2.339844 C 15.179688 2.363281 15.308594 2.363281 15.4375 2.339844 C 15.5625 2.3125 15.683594 2.265625 15.792969 2.191406 C 15.898438 2.121094 15.992188 2.03125 16.0625 1.921875 C 16.136719 1.8125 16.183594 1.695312 16.210938 1.566406 C 16.234375 1.4375 16.234375 1.308594 16.210938 1.183594 C 16.183594 1.054688 16.136719 0.9375 16.0625 0.828125 C 15.992188 0.71875 15.898438 0.628906 15.792969 0.554688 C 15.683594 0.484375 15.566406 0.433594 15.4375 0.410156 C 15.308594 0.382812 15.179688 0.382812 15.050781 0.410156 Z M 15.050781 0.410156 "/>
<g clip-path="url(#clip3)" clip-rule="nonzero">
<path style=" stroke:none;fill-rule:nonzero;fill:rgb(27.839661%,53.329468%,78.039551%);fill-opacity:1;" d="M 21.964844 35.160156 C 21.839844 35.1875 21.71875 35.234375 21.613281 35.308594 C 21.503906 35.378906 21.414062 35.472656 21.339844 35.578125 C 21.265625 35.6875 21.21875 35.804688 21.191406 35.933594 C 21.167969 36.0625 21.167969 36.191406 21.191406 36.316406 C 21.21875 36.445312 21.265625 36.566406 21.339844 36.671875 C 21.414062 36.78125 21.503906 36.871094 21.613281 36.945312 C 21.71875 37.015625 21.839844 37.066406 21.964844 37.089844 C 22.09375 37.117188 22.222656 37.117188 22.351562 37.089844 C 22.476562 37.066406 22.597656 37.015625 22.703125 36.945312 C 22.8125 36.871094 22.902344 36.78125 22.976562 36.671875 C 23.050781 36.566406 23.097656 36.445312 23.125 36.320312 C 23.148438 36.191406 23.148438 36.0625 23.125 35.933594 C 23.097656 35.804688 23.050781 35.6875 22.976562 35.578125 C 22.902344 35.472656 22.8125 35.378906 22.707031 35.308594 C 22.597656 35.234375 22.476562 35.1875 22.351562 35.160156 C 22.222656 35.136719 22.09375 35.136719 21.964844 35.160156 Z M 21.964844 35.160156 "/>
</g>
<path style=" stroke:none;fill-rule:nonzero;fill:rgb(27.839661%,53.329468%,78.039551%);fill-opacity:1;" d="M 15.050781 0.410156 C 14.925781 0.433594 14.804688 0.484375 14.699219 0.554688 C 14.589844 0.628906 14.5 0.71875 14.425781 0.828125 C 14.355469 0.9375 14.304688 1.054688 14.277344 1.183594 C 14.253906 1.308594 14.253906 1.4375 14.277344 1.566406 C 14.304688 1.695312 14.355469 1.8125 14.425781 1.921875 C 14.5 2.027344 14.589844 2.121094 14.699219 2.191406 C 14.804688 2.265625 14.925781 2.3125 15.050781 2.339844 C 15.179688 2.363281 15.308594 2.363281 15.4375 2.339844 C 15.5625 2.3125 15.683594 2.265625 15.792969 2.191406 C 15.898438 2.121094 15.992188 2.03125 16.0625 1.921875 C 16.136719 1.8125 16.183594 1.695312 16.210938 1.566406 C 16.234375 1.4375 16.234375 1.308594 16.210938 1.183594 C 16.183594 1.054688 16.136719 0.9375 16.0625 0.828125 C 15.992188 0.71875 15.898438 0.628906 15.792969 0.554688 C 15.683594 0.484375 15.566406 0.433594 15.4375 0.410156 C 15.308594 0.382812 15.179688 0.382812 15.050781 0.410156 Z M 15.050781 0.410156 "/>
<g clip-path="url(#clip4)" clip-rule="nonzero">
<path style=" stroke:none;fill-rule:nonzero;fill:rgb(27.839661%,53.329468%,78.039551%);fill-opacity:1;" d="M 21.964844 35.160156 C 21.839844 35.1875 21.71875 35.234375 21.613281 35.308594 C 21.503906 35.378906 21.414062 35.472656 21.339844 35.578125 C 21.265625 35.6875 21.21875 35.804688 21.191406 35.933594 C 21.167969 36.0625 21.167969 36.191406 21.191406 36.316406 C 21.21875 36.445312 21.265625 36.566406 21.339844 36.671875 C 21.414062 36.78125 21.503906 36.871094 21.613281 36.945312 C 21.71875 37.015625 21.839844 37.066406 21.964844 37.089844 C 22.09375 37.117188 22.222656 37.117188 22.351562 37.089844 C 22.476562 37.066406 22.597656 37.015625 22.703125 36.945312 C 22.8125 36.871094 22.902344 36.78125 22.976562 36.671875 C 23.050781 36.566406 23.097656 36.445312 23.125 36.320312 C 23.148438 36.191406 23.148438 36.0625 23.125 35.933594 C 23.097656 35.804688 23.050781 35.6875 22.976562 35.578125 C 22.902344 35.472656 22.8125 35.378906 22.707031 35.308594 C 22.597656 35.234375 22.476562 35.1875 22.351562 35.160156 C 22.222656 35.136719 22.09375 35.136719 21.964844 35.160156 Z M 21.964844 35.160156 "/>
</g>
<g clip-path="url(#clip5)" clip-rule="nonzero">
<path style=" stroke:none;fill-rule:nonzero;fill:rgb(27.839661%,53.329468%,78.039551%);fill-opacity:1;" d="M 35.886719 14.328125 C 35.757812 14.351562 35.640625 14.402344 35.53125 14.476562 C 35.421875 14.546875 35.332031 14.636719 35.257812 14.746094 C 35.1875 14.855469 35.136719 14.972656 35.113281 15.101562 C 35.085938 15.230469 35.085938 15.355469 35.113281 15.484375 C 35.136719 15.613281 35.1875 15.730469 35.257812 15.839844 C 35.332031 15.949219 35.421875 16.039062 35.53125 16.113281 C 35.640625 16.183594 35.757812 16.234375 35.886719 16.257812 C 36.011719 16.285156 36.140625 16.285156 36.269531 16.257812 C 36.398438 16.234375 36.515625 16.183594 36.625 16.113281 C 36.734375 16.039062 36.824219 15.949219 36.894531 15.839844 C 36.96875 15.730469 37.015625 15.613281 37.042969 15.484375 C 37.066406 15.355469 37.066406 15.230469 37.042969 15.101562 C 37.015625 14.972656 36.96875 14.855469 36.894531 14.746094 C 36.824219 14.636719 36.734375 14.546875 36.625 14.476562 C 36.515625 14.402344 36.398438 14.351562 36.269531 14.328125 C 36.140625 14.300781 36.011719 14.300781 35.886719 14.328125 Z M 35.886719 14.328125 "/>
</g>
<path style=" stroke:none;fill-rule:nonzero;fill:rgb(27.839661%,53.329468%,78.039551%);fill-opacity:1;" d="M 1.132812 21.242188 C 1.003906 21.265625 0.886719 21.316406 0.777344 21.386719 C 0.671875 21.460938 0.578125 21.550781 0.507812 21.660156 C 0.433594 21.769531 0.386719 21.886719 0.359375 22.015625 C 0.335938 22.144531 0.335938 22.269531 0.359375 22.398438 C 0.386719 22.527344 0.433594 22.644531 0.507812 22.753906 C 0.578125 22.863281 0.667969 22.953125 0.777344 23.023438 C 0.886719 23.097656 1.003906 23.148438 1.132812 23.171875 C 1.261719 23.199219 1.390625 23.199219 1.515625 23.171875 C 1.644531 23.148438 1.761719 23.097656 1.871094 23.027344 C 1.980469 22.953125 2.070312 22.863281 2.144531 22.753906 C 2.214844 22.644531 2.265625 22.527344 2.289062 22.398438 C 2.316406 22.269531 2.316406 22.144531 2.289062 22.015625 C 2.265625 21.886719 2.214844 21.769531 2.144531 21.660156 C 2.070312 21.550781 1.980469 21.460938 1.871094 21.390625 C 1.761719 21.316406 1.644531 21.265625 1.515625 21.242188 C 1.390625 21.214844 1.261719 21.214844 1.132812 21.242188 Z M 1.132812 21.242188 "/>
<path style=" stroke:none;fill-rule:nonzero;fill:rgb(27.839661%,53.329468%,78.039551%);fill-opacity:1;" d="M 27.726562 3.472656 C 27.652344 3.582031 27.605469 3.699219 27.578125 3.828125 C 27.554688 3.957031 27.554688 4.082031 27.578125 4.210938 C 27.605469 4.339844 27.652344 4.457031 27.726562 4.566406 C 27.796875 4.675781 27.890625 4.765625 27.996094 4.835938 C 28.105469 4.910156 28.222656 4.960938 28.351562 4.984375 C 28.480469 5.011719 28.609375 5.011719 28.734375 4.984375 C 28.863281 4.960938 28.980469 4.910156 29.089844 4.835938 C 29.199219 4.765625 29.289062 4.675781 29.363281 4.566406 C 29.433594 4.457031 29.484375 4.339844 29.507812 4.210938 C 29.535156 4.082031 29.535156 3.957031 29.507812 3.828125 C 29.484375 3.699219 29.433594 3.582031 29.363281 3.472656 C 29.289062 3.363281 29.199219 3.273438 29.089844 3.199219 C 28.980469 3.128906 28.863281 3.078125 28.734375 3.054688 C 28.609375 3.027344 28.480469 3.027344 28.351562 3.054688 C 28.222656 3.078125 28.105469 3.128906 27.996094 3.199219 C 27.890625 3.273438 27.796875 3.363281 27.726562 3.472656 Z M 27.726562 3.472656 "/>
<path style=" stroke:none;fill-rule:nonzero;fill:rgb(27.839661%,53.329468%,78.039551%);fill-opacity:1;" d="M 8.039062 32.933594 C 7.96875 33.042969 7.917969 33.160156 7.894531 33.289062 C 7.867188 33.414062 7.867188 33.542969 7.894531 33.671875 C 7.917969 33.800781 7.96875 33.917969 8.039062 34.027344 C 8.113281 34.136719 8.203125 34.226562 8.3125 34.296875 C 8.421875 34.371094 8.539062 34.417969 8.667969 34.445312 C 8.796875 34.46875 8.921875 34.46875 9.050781 34.445312 C 9.179688 34.417969 9.296875 34.371094 9.40625 34.296875 C 9.515625 34.226562 9.605469 34.136719 9.675781 34.027344 C 9.75 33.917969 9.800781 33.800781 9.824219 33.671875 C 9.851562 33.542969 9.851562 33.414062 9.824219 33.289062 C 9.800781 33.160156 9.75 33.042969 9.675781 32.933594 C 9.605469 32.824219 9.515625 32.734375 9.40625 32.660156 C 9.296875 32.589844 9.179688 32.539062 9.050781 32.515625 C 8.921875 32.488281 8.796875 32.488281 8.667969 32.515625 C 8.539062 32.539062 8.421875 32.589844 8.3125 32.660156 C 8.203125 32.734375 8.113281 32.824219 8.039062 32.933594 Z M 8.039062 32.933594 "/>
<path style=" stroke:none;fill-rule:nonzero;fill:rgb(27.839661%,53.329468%,78.039551%);fill-opacity:1;" d="M 27.726562 3.472656 C 27.652344 3.582031 27.605469 3.699219 27.578125 3.828125 C 27.554688 3.957031 27.554688 4.082031 27.578125 4.210938 C 27.605469 4.339844 27.652344 4.457031 27.726562 4.566406 C 27.796875 4.675781 27.890625 4.765625 27.996094 4.835938 C 28.105469 4.910156 28.222656 4.960938 28.351562 4.984375 C 28.480469 5.011719 28.609375 5.011719 28.734375 4.984375 C 28.863281 4.960938 28.980469 4.910156 29.089844 4.835938 C 29.199219 4.765625 29.289062 4.675781 29.363281 4.566406 C 29.433594 4.457031 29.484375 4.339844 29.507812 4.210938 C 29.535156 4.082031 29.535156 3.957031 29.507812 3.828125 C 29.484375 3.699219 29.433594 3.582031 29.363281 3.472656 C 29.289062 3.363281 29.199219 3.273438 29.089844 3.199219 C 28.980469 3.128906 28.863281 3.078125 28.734375 3.054688 C 28.609375 3.027344 28.480469 3.027344 28.351562 3.054688 C 28.222656 3.078125 28.105469 3.128906 27.996094 3.199219 C 27.890625 3.273438 27.796875 3.363281 27.726562 3.472656 Z M 27.726562 3.472656 "/>
<path style=" stroke:none;fill-rule:nonzero;fill:rgb(27.839661%,53.329468%,78.039551%);fill-opacity:1;" d="M 8.039062 32.933594 C 7.96875 33.042969 7.917969 33.160156 7.894531 33.289062 C 7.867188 33.414062 7.867188 33.542969 7.894531 33.671875 C 7.917969 33.800781 7.96875 33.917969 8.039062 34.027344 C 8.113281 34.136719 8.203125 34.226562 8.3125 34.296875 C 8.421875 34.371094 8.539062 34.417969 8.667969 34.445312 C 8.796875 34.46875 8.921875 34.46875 9.050781 34.445312 C 9.179688 34.417969 9.296875 34.371094 9.40625 34.296875 C 9.515625 34.226562 9.605469 34.136719 9.675781 34.027344 C 9.75 33.917969 9.800781 33.800781 9.824219 33.671875 C 9.851562 33.542969 9.851562 33.414062 9.824219 33.289062 C 9.800781 33.160156 9.75 33.042969 9.675781 32.933594 C 9.605469 32.824219 9.515625 32.734375 9.40625 32.660156 C 9.296875 32.589844 9.179688 32.539062 9.050781 32.515625 C 8.921875 32.488281 8.796875 32.488281 8.667969 32.515625 C 8.539062 32.539062 8.421875 32.589844 8.3125 32.660156 C 8.203125 32.734375 8.113281 32.824219 8.039062 32.933594 Z M 8.039062 32.933594 "/>
<path style=" stroke:none;fill-rule:nonzero;fill:rgb(27.839661%,53.329468%,78.039551%);fill-opacity:1;" d="M 32.613281 28.042969 C 32.539062 28.152344 32.492188 28.273438 32.464844 28.398438 C 32.441406 28.527344 32.441406 28.65625 32.464844 28.785156 C 32.492188 28.910156 32.539062 29.03125 32.613281 29.136719 C 32.683594 29.246094 32.773438 29.335938 32.882812 29.410156 C 32.992188 29.484375 33.109375 29.53125 33.238281 29.558594 C 33.367188 29.582031 33.496094 29.582031 33.621094 29.558594 C 33.75 29.53125 33.867188 29.484375 33.976562 29.410156 C 34.085938 29.335938 34.175781 29.246094 34.25 29.136719 C 34.320312 29.03125 34.371094 28.910156 34.394531 28.785156 C 34.421875 28.65625 34.421875 28.527344 34.394531 28.398438 C 34.371094 28.273438 34.320312 28.152344 34.25 28.042969 C 34.175781 27.9375 34.085938 27.847656 33.976562 27.773438 C 33.867188 27.699219 33.75 27.652344 33.621094 27.625 C 33.496094 27.601562 33.367188 27.601562 33.238281 27.625 C 33.109375 27.652344 32.992188 27.699219 32.882812 27.773438 C 32.773438 27.847656 32.683594 27.9375 32.613281 28.042969 Z M 32.613281 28.042969 "/>
<path style=" stroke:none;fill-rule:nonzero;fill:rgb(27.839661%,53.329468%,78.039551%);fill-opacity:1;" d="M 3.152344 8.359375 C 3.078125 8.46875 3.03125 8.585938 3.003906 8.714844 C 2.980469 8.84375 2.980469 8.96875 3.003906 9.097656 C 3.03125 9.226562 3.078125 9.34375 3.152344 9.453125 C 3.222656 9.5625 3.316406 9.652344 3.421875 9.726562 C 3.53125 9.796875 3.648438 9.847656 3.777344 9.871094 C 3.90625 9.898438 4.035156 9.898438 4.160156 9.871094 C 4.289062 9.847656 4.410156 9.796875 4.515625 9.726562 C 4.625 9.652344 4.714844 9.5625 4.789062 9.453125 C 4.859375 9.34375 4.910156 9.226562 4.933594 9.097656 C 4.960938 8.96875 4.960938 8.84375 4.933594 8.714844 C 4.910156 8.585938 4.859375 8.46875 4.789062 8.359375 C 4.714844 8.25 4.625 8.160156 4.515625 8.089844 C 4.410156 8.015625 4.289062 7.964844 4.160156 7.941406 C 4.035156 7.914062 3.90625 7.914062 3.777344 7.941406 C 3.648438 7.964844 3.53125 8.015625 3.421875 8.089844 C 3.316406 8.160156 3.222656 8.25 3.152344 8.359375 Z M 3.152344 8.359375 "/>
<path style=" stroke:none;fill-rule:nonzero;fill:rgb(27.839661%,53.329468%,78.039551%);fill-opacity:1;" d="M 21.191406 1.183594 C 21.167969 1.308594 21.167969 1.4375 21.191406 1.566406 C 21.21875 1.695312 21.265625 1.8125 21.339844 1.921875 C 21.410156 2.03125 21.503906 2.121094 21.609375 2.191406 C 21.71875 2.265625 21.835938 2.3125 21.964844 2.339844 C 22.09375 2.363281 22.222656 2.363281 22.347656 2.339844 C 22.476562 2.3125 22.597656 2.265625 22.703125 2.191406 C 22.8125 2.121094 22.902344 2.03125 22.976562 1.921875 C 23.046875 1.8125 23.097656 1.695312 23.121094 1.566406 C 23.148438 1.4375 23.148438 1.308594 23.121094 1.183594 C 23.097656 1.054688 23.046875 0.9375 22.976562 0.828125 C 22.902344 0.71875 22.8125 0.628906 22.703125 0.554688 C 22.597656 0.484375 22.476562 0.433594 22.347656 0.410156 C 22.222656 0.382812 22.09375 0.382812 21.964844 0.410156 C 21.835938 0.433594 21.71875 0.484375 21.609375 0.554688 C 21.503906 0.628906 21.410156 0.71875 21.339844 0.828125 C 21.265625 0.9375 21.21875 1.054688 21.191406 1.183594 Z M 21.191406 1.183594 "/>
<g clip-path="url(#clip6)" clip-rule="nonzero">
<path style=" stroke:none;fill-rule:nonzero;fill:rgb(27.839661%,53.329468%,78.039551%);fill-opacity:1;" d="M 14.28125 35.933594 C 14.253906 36.0625 14.253906 36.191406 14.28125 36.320312 C 14.304688 36.445312 14.355469 36.566406 14.425781 36.671875 C 14.5 36.78125 14.589844 36.871094 14.699219 36.945312 C 14.804688 37.019531 14.925781 37.066406 15.054688 37.09375 C 15.179688 37.117188 15.308594 37.117188 15.4375 37.09375 C 15.566406 37.066406 15.683594 37.019531 15.792969 36.945312 C 15.898438 36.871094 15.992188 36.78125 16.0625 36.671875 C 16.136719 36.566406 16.183594 36.445312 16.210938 36.320312 C 16.234375 36.191406 16.234375 36.0625 16.210938 35.933594 C 16.183594 35.808594 16.136719 35.6875 16.0625 35.582031 C 15.992188 35.472656 15.898438 35.382812 15.792969 35.308594 C 15.683594 35.234375 15.566406 35.1875 15.4375 35.160156 C 15.308594 35.136719 15.179688 35.136719 15.054688 35.160156 C 14.925781 35.1875 14.804688 35.234375 14.699219 35.308594 C 14.589844 35.382812 14.5 35.472656 14.425781 35.582031 C 14.355469 35.6875 14.304688 35.808594 14.28125 35.933594 Z M 14.28125 35.933594 "/>
</g>
<path style=" stroke:none;fill-rule:nonzero;fill:rgb(27.839661%,53.329468%,78.039551%);fill-opacity:1;" d="M 21.191406 1.183594 C 21.167969 1.308594 21.167969 1.4375 21.191406 1.566406 C 21.21875 1.695312 21.265625 1.8125 21.339844 1.921875 C 21.410156 2.03125 21.503906 2.121094 21.609375 2.191406 C 21.71875 2.265625 21.835938 2.3125 21.964844 2.339844 C 22.09375 2.363281 22.222656 2.363281 22.347656 2.339844 C 22.476562 2.3125 22.597656 2.265625 22.703125 2.191406 C 22.8125 2.121094 22.902344 2.03125 22.976562 1.921875 C 23.046875 1.8125 23.097656 1.695312 23.121094 1.566406 C 23.148438 1.4375 23.148438 1.308594 23.121094 1.183594 C 23.097656 1.054688 23.046875 0.9375 22.976562 0.828125 C 22.902344 0.71875 22.8125 0.628906 22.703125 0.554688 C 22.597656 0.484375 22.476562 0.433594 22.347656 0.410156 C 22.222656 0.382812 22.09375 0.382812 21.964844 0.410156 C 21.835938 0.433594 21.71875 0.484375 21.609375 0.554688 C 21.503906 0.628906 21.410156 0.71875 21.339844 0.828125 C 21.265625 0.9375 21.21875 1.054688 21.191406 1.183594 Z M 21.191406 1.183594 "/>
<g clip-path="url(#clip7)" clip-rule="nonzero">
<path style=" stroke:none;fill-rule:nonzero;fill:rgb(27.839661%,53.329468%,78.039551%);fill-opacity:1;" d="M 14.28125 35.933594 C 14.253906 36.0625 14.253906 36.191406 14.28125 36.320312 C 14.304688 36.445312 14.355469 36.566406 14.425781 36.671875 C 14.5 36.78125 14.589844 36.871094 14.699219 36.945312 C 14.804688 37.019531 14.925781 37.066406 15.054688 37.09375 C 15.179688 37.117188 15.308594 37.117188 15.4375 37.09375 C 15.566406 37.066406 15.683594 37.019531 15.792969 36.945312 C 15.898438 36.871094 15.992188 36.78125 16.0625 36.671875 C 16.136719 36.566406 16.183594 36.445312 16.210938 36.320312 C 16.234375 36.191406 16.234375 36.0625 16.210938 35.933594 C 16.183594 35.808594 16.136719 35.6875 16.0625 35.582031 C 15.992188 35.472656 15.898438 35.382812 15.792969 35.308594 C 15.683594 35.234375 15.566406 35.1875 15.4375 35.160156 C 15.308594 35.136719 15.179688 35.136719 15.054688 35.160156 C 14.925781 35.1875 14.804688 35.234375 14.699219 35.308594 C 14.589844 35.382812 14.5 35.472656 14.425781 35.582031 C 14.355469 35.6875 14.304688 35.808594 14.28125 35.933594 Z M 14.28125 35.933594 "/>
</g>
<g clip-path="url(#clip8)" clip-rule="nonzero">
<path style=" stroke:none;fill-rule:nonzero;fill:rgb(27.839661%,53.329468%,78.039551%);fill-opacity:1;" d="M 35.113281 22.015625 C 35.085938 22.140625 35.085938 22.269531 35.113281 22.398438 C 35.136719 22.527344 35.1875 22.644531 35.257812 22.753906 C 35.332031 22.859375 35.421875 22.953125 35.53125 23.023438 C 35.640625 23.097656 35.757812 23.144531 35.886719 23.171875 C 36.015625 23.195312 36.140625 23.195312 36.269531 23.171875 C 36.398438 23.144531 36.515625 23.097656 36.625 23.023438 C 36.734375 22.953125 36.824219 22.859375 36.894531 22.753906 C 36.96875 22.644531 37.019531 22.527344 37.042969 22.398438 C 37.070312 22.269531 37.070312 22.140625 37.042969 22.015625 C 37.019531 21.886719 36.96875 21.769531 36.894531 21.660156 C 36.824219 21.550781 36.734375 21.460938 36.625 21.386719 C 36.515625 21.316406 36.398438 21.265625 36.269531 21.242188 C 36.140625 21.214844 36.015625 21.214844 35.886719 21.242188 C 35.757812 21.265625 35.640625 21.316406 35.53125 21.386719 C 35.421875 21.460938 35.332031 21.550781 35.257812 21.660156 C 35.1875 21.769531 35.136719 21.886719 35.113281 22.015625 Z M 35.113281 22.015625 "/>
</g>
<path style=" stroke:none;fill-rule:nonzero;fill:rgb(27.839661%,53.329468%,78.039551%);fill-opacity:1;" d="M 0.359375 15.101562 C 0.335938 15.230469 0.335938 15.355469 0.359375 15.484375 C 0.386719 15.613281 0.433594 15.730469 0.507812 15.839844 C 0.578125 15.949219 0.667969 16.039062 0.777344 16.113281 C 0.886719 16.183594 1.003906 16.234375 1.132812 16.257812 C 1.261719 16.285156 1.390625 16.285156 1.515625 16.257812 C 1.644531 16.234375 1.761719 16.183594 1.871094 16.113281 C 1.980469 16.039062 2.070312 15.949219 2.144531 15.839844 C 2.214844 15.730469 2.265625 15.613281 2.289062 15.484375 C 2.316406 15.355469 2.316406 15.230469 2.289062 15.101562 C 2.265625 14.972656 2.214844 14.855469 2.144531 14.746094 C 2.070312 14.636719 1.980469 14.546875 1.871094 14.476562 C 1.761719 14.402344 1.644531 14.351562 1.515625 14.328125 C 1.390625 14.300781 1.261719 14.300781 1.132812 14.328125 C 1.003906 14.351562 0.886719 14.402344 0.777344 14.476562 C 0.667969 14.546875 0.578125 14.636719 0.507812 14.746094 C 0.433594 14.855469 0.386719 14.972656 0.359375 15.101562 Z M 0.359375 15.101562 "/>
<path style=" stroke:none;fill-rule:nonzero;fill:rgb(27.839661%,53.329468%,78.039551%);fill-opacity:1;" d="M 32.882812 8.089844 C 32.777344 8.160156 32.683594 8.25 32.613281 8.359375 C 32.539062 8.46875 32.492188 8.585938 32.464844 8.714844 C 32.441406 8.84375 32.441406 8.972656 32.464844 9.097656 C 32.492188 9.226562 32.539062 9.34375 32.613281 9.453125 C 32.683594 9.5625 32.777344 9.652344 32.882812 9.726562 C 32.992188 9.796875 33.109375 9.847656 33.238281 9.871094 C 33.367188 9.898438 33.496094 9.898438 33.621094 9.871094 C 33.75 9.847656 33.871094 9.796875 33.976562 9.726562 C 34.085938 9.652344 34.175781 9.5625 34.25 9.453125 C 34.320312 9.34375 34.371094 9.226562 34.394531 9.097656 C 34.421875 8.972656 34.421875 8.84375 34.394531 8.714844 C 34.371094 8.585938 34.320312 8.46875 34.25 8.359375 C 34.175781 8.25 34.085938 8.160156 33.976562 8.089844 C 33.871094 8.015625 33.75 7.96875 33.621094 7.941406 C 33.496094 7.917969 33.367188 7.917969 33.238281 7.941406 C 33.109375 7.96875 32.992188 8.015625 32.882812 8.089844 Z M 32.882812 8.089844 "/>
<path style=" stroke:none;fill-rule:nonzero;fill:rgb(27.839661%,53.329468%,78.039551%);fill-opacity:1;" d="M 3.425781 27.773438 C 3.316406 27.847656 3.226562 27.9375 3.152344 28.046875 C 3.078125 28.152344 3.03125 28.273438 3.003906 28.398438 C 2.980469 28.527344 2.980469 28.65625 3.003906 28.785156 C 3.03125 28.910156 3.078125 29.03125 3.152344 29.136719 C 3.226562 29.246094 3.316406 29.335938 3.425781 29.410156 C 3.53125 29.484375 3.652344 29.53125 3.777344 29.558594 C 3.90625 29.582031 4.035156 29.582031 4.164062 29.558594 C 4.289062 29.53125 4.410156 29.484375 4.519531 29.410156 C 4.625 29.335938 4.714844 29.246094 4.789062 29.136719 C 4.863281 29.03125 4.910156 28.910156 4.9375 28.785156 C 4.960938 28.65625 4.960938 28.527344 4.9375 28.398438 C 4.910156 28.273438 4.863281 28.152344 4.789062 28.046875 C 4.714844 27.9375 4.625 27.847656 4.519531 27.773438 C 4.410156 27.699219 4.289062 27.652344 4.164062 27.625 C 4.035156 27.601562 3.90625 27.601562 3.777344 27.625 C 3.652344 27.652344 3.53125 27.699219 3.425781 27.773438 Z M 3.425781 27.773438 "/>
<path style=" stroke:none;fill-rule:nonzero;fill:rgb(27.839661%,53.329468%,78.039551%);fill-opacity:1;" d="M 32.882812 8.089844 C 32.777344 8.160156 32.683594 8.25 32.613281 8.359375 C 32.539062 8.46875 32.492188 8.585938 32.464844 8.714844 C 32.441406 8.84375 32.441406 8.972656 32.464844 9.097656 C 32.492188 9.226562 32.539062 9.34375 32.613281 9.453125 C 32.683594 9.5625 32.777344 9.652344 32.882812 9.726562 C 32.992188 9.796875 33.109375 9.847656 33.238281 9.871094 C 33.367188 9.898438 33.496094 9.898438 33.621094 9.871094 C 33.75 9.847656 33.871094 9.796875 33.976562 9.726562 C 34.085938 9.652344 34.175781 9.5625 34.25 9.453125 C 34.320312 9.34375 34.371094 9.226562 34.394531 9.097656 C 34.421875 8.972656 34.421875 8.84375 34.394531 8.714844 C 34.371094 8.585938 34.320312 8.46875 34.25 8.359375 C 34.175781 8.25 34.085938 8.160156 33.976562 8.089844 C 33.871094 8.015625 33.75 7.96875 33.621094 7.941406 C 33.496094 7.917969 33.367188 7.917969 33.238281 7.941406 C 33.109375 7.96875 32.992188 8.015625 32.882812 8.089844 Z M 32.882812 8.089844 "/>
<path style=" stroke:none;fill-rule:nonzero;fill:rgb(27.839661%,53.329468%,78.039551%);fill-opacity:1;" d="M 3.425781 27.773438 C 3.316406 27.847656 3.226562 27.9375 3.152344 28.046875 C 3.078125 28.152344 3.03125 28.273438 3.003906 28.398438 C 2.980469 28.527344 2.980469 28.65625 3.003906 28.785156 C 3.03125 28.910156 3.078125 29.03125 3.152344 29.136719 C 3.226562 29.246094 3.316406 29.335938 3.425781 29.410156 C 3.53125 29.484375 3.652344 29.53125 3.777344 29.558594 C 3.90625 29.582031 4.035156 29.582031 4.164062 29.558594 C 4.289062 29.53125 4.410156 29.484375 4.519531 29.410156 C 4.625 29.335938 4.714844 29.246094 4.789062 29.136719 C 4.863281 29.03125 4.910156 28.910156 4.9375 28.785156 C 4.960938 28.65625 4.960938 28.527344 4.9375 28.398438 C 4.910156 28.273438 4.863281 28.152344 4.789062 28.046875 C 4.714844 27.9375 4.625 27.847656 4.519531 27.773438 C 4.410156 27.699219 4.289062 27.652344 4.164062 27.625 C 4.035156 27.601562 3.90625 27.601562 3.777344 27.625 C 3.652344 27.652344 3.53125 27.699219 3.425781 27.773438 Z M 3.425781 27.773438 "/>
<path style=" stroke:none;fill-rule:nonzero;fill:rgb(27.839661%,53.329468%,78.039551%);fill-opacity:1;" d="M 27.996094 32.660156 C 27.886719 32.734375 27.796875 32.824219 27.726562 32.933594 C 27.652344 33.042969 27.605469 33.160156 27.578125 33.289062 C 27.554688 33.414062 27.554688 33.542969 27.578125 33.671875 C 27.605469 33.800781 27.652344 33.917969 27.726562 34.027344 C 27.796875 34.136719 27.886719 34.226562 27.996094 34.296875 C 28.105469 34.371094 28.222656 34.417969 28.351562 34.445312 C 28.480469 34.46875 28.609375 34.46875 28.734375 34.445312 C 28.863281 34.417969 28.980469 34.371094 29.089844 34.296875 C 29.199219 34.226562 29.289062 34.136719 29.363281 34.027344 C 29.433594 33.917969 29.484375 33.800781 29.507812 33.671875 C 29.535156 33.542969 29.535156 33.414062 29.507812 33.289062 C 29.484375 33.160156 29.433594 33.042969 29.363281 32.933594 C 29.289062 32.824219 29.199219 32.734375 29.089844 32.660156 C 28.980469 32.589844 28.863281 32.539062 28.734375 32.515625 C 28.609375 32.488281 28.480469 32.488281 28.351562 32.515625 C 28.222656 32.539062 28.105469 32.589844 27.996094 32.660156 Z M 27.996094 32.660156 "/>
<path style=" stroke:none;fill-rule:nonzero;fill:rgb(27.839661%,53.329468%,78.039551%);fill-opacity:1;" d="M 8.3125 3.199219 C 8.203125 3.273438 8.113281 3.363281 8.039062 3.472656 C 7.96875 3.582031 7.917969 3.699219 7.894531 3.828125 C 7.867188 3.957031 7.867188 4.082031 7.894531 4.210938 C 7.917969 4.339844 7.96875 4.457031 8.039062 4.566406 C 8.113281 4.675781 8.203125 4.765625 8.3125 4.839844 C 8.421875 4.910156 8.539062 4.960938 8.667969 4.984375 C 8.792969 5.011719 8.921875 5.011719 9.050781 4.984375 C 9.179688 4.960938 9.296875 4.910156 9.40625 4.839844 C 9.515625 4.765625 9.605469 4.675781 9.675781 4.566406 C 9.75 4.457031 9.796875 4.339844 9.824219 4.210938 C 9.851562 4.082031 9.851562 3.957031 9.824219 3.828125 C 9.796875 3.699219 9.75 3.582031 9.675781 3.472656 C 9.605469 3.363281 9.515625 3.273438 9.40625 3.199219 C 9.296875 3.128906 9.179688 3.078125 9.050781 3.054688 C 8.921875 3.027344 8.792969 3.027344 8.667969 3.054688 C 8.539062 3.078125 8.421875 3.128906 8.3125 3.199219 Z M 8.3125 3.199219 "/>
</g>
</svg>
