<?xml version="1.0" encoding="UTF-8"?>
<svg xmlns="http://www.w3.org/2000/svg" xmlns:xlink="http://www.w3.org/1999/xlink" width="37.5pt" height="37.499999pt" viewBox="0 0 37.5 37.499999" version="1.2">
<defs>
<clipPath id="clip1">
  <path d="M 8.929688 0 L 28.289062 0 L 28.289062 37.007812 L 8.929688 37.007812 Z M 8.929688 0 "/>
</clipPath>
</defs>
<g id="surface1">
<g clip-path="url(#clip1)" clip-rule="nonzero">
<path style=" stroke:none;fill-rule:nonzero;fill:rgb(32.939148%,43.139648%,47.839355%);fill-opacity:1;" d="M 27.449219 3.574219 C 27.449219 3.574219 26.9375 0.00390625 23.046875 0.00390625 C 21.214844 0.00390625 19.886719 0.00390625 18.648438 0.00390625 C 18.636719 0.00390625 18.621094 0.00390625 18.609375 0.00390625 C 17.371094 0.00390625 16.046875 0.00390625 14.210938 0.00390625 C 10.324219 0.00390625 9.808594 3.574219 9.808594 3.574219 C 9.808594 3.574219 8.957031 9.421875 8.929688 18.75 C 8.921875 21.476562 8.976562 24.5 9.152344 27.757812 L 9.488281 34.464844 C 9.554688 35.800781 10.585938 36.886719 11.917969 37.023438 L 14.757812 37.304688 C 16.039062 37.433594 17.324219 37.496094 18.609375 37.496094 C 18.613281 37.496094 18.621094 37.496094 18.628906 37.496094 C 18.632812 37.496094 18.640625 37.496094 18.648438 37.496094 C 19.933594 37.496094 21.21875 37.433594 22.5 37.304688 L 25.339844 37.023438 C 26.667969 36.890625 27.703125 35.800781 27.769531 34.464844 L 28.101562 27.757812 C 28.28125 24.5 28.296875 21.476562 28.289062 18.75 C 28.261719 9.421875 27.449219 3.574219 27.449219 3.574219 Z M 27.449219 3.574219 "/>
</g>
<path style=" stroke:none;fill-rule:nonzero;fill:rgb(50.19989%,79.60968%,76.858521%);fill-opacity:1;" d="M 23.074219 16.964844 L 14.144531 16.964844 C 13.695312 16.964844 13.328125 16.59375 13.328125 16.136719 L 13.328125 9.757812 C 13.328125 9.300781 13.695312 8.929688 14.144531 8.929688 L 23.074219 8.929688 C 23.523438 8.929688 23.890625 9.300781 23.890625 9.757812 L 23.890625 16.136719 C 23.890625 16.59375 23.523438 16.964844 23.074219 16.964844 Z M 23.074219 16.964844 "/>
<path style=" stroke:none;fill-rule:nonzero;fill:rgb(70.199585%,89.7995%,98.81897%);fill-opacity:1;" d="M 18.609375 24.105469 C 18.375 24.105469 18.152344 24.140625 17.9375 24.207031 C 17.722656 24.277344 17.53125 24.375 17.367188 24.5 C 17.199219 24.625 17.074219 24.769531 16.984375 24.933594 C 16.894531 25.097656 16.851562 25.269531 16.851562 25.445312 C 16.851562 25.625 16.894531 25.792969 16.984375 25.957031 C 17.074219 26.121094 17.199219 26.265625 17.367188 26.390625 C 17.53125 26.519531 17.722656 26.613281 17.9375 26.683594 C 18.152344 26.75 18.375 26.785156 18.609375 26.785156 C 18.84375 26.785156 19.066406 26.75 19.285156 26.683594 C 19.5 26.613281 19.6875 26.519531 19.855469 26.390625 C 20.019531 26.265625 20.148438 26.121094 20.234375 25.957031 C 20.324219 25.792969 20.371094 25.625 20.371094 25.445312 C 20.371094 25.269531 20.324219 25.097656 20.234375 24.933594 C 20.148438 24.769531 20.019531 24.625 19.855469 24.5 C 19.6875 24.375 19.5 24.277344 19.285156 24.207031 C 19.066406 24.140625 18.84375 24.105469 18.609375 24.105469 Z M 18.609375 28.570312 C 18.375 28.570312 18.152344 28.605469 17.9375 28.671875 C 17.722656 28.738281 17.53125 28.835938 17.367188 28.960938 C 17.199219 29.089844 17.074219 29.234375 16.984375 29.398438 C 16.894531 29.5625 16.851562 29.730469 16.851562 29.910156 C 16.851562 30.085938 16.894531 30.257812 16.984375 30.421875 C 17.074219 30.585938 17.199219 30.730469 17.367188 30.855469 C 17.53125 30.980469 17.722656 31.078125 17.9375 31.148438 C 18.152344 31.214844 18.375 31.25 18.609375 31.25 C 18.84375 31.25 19.066406 31.214844 19.285156 31.148438 C 19.5 31.078125 19.6875 30.980469 19.855469 30.855469 C 20.019531 30.730469 20.148438 30.585938 20.234375 30.421875 C 20.324219 30.257812 20.371094 30.085938 20.371094 29.910156 C 20.371094 29.730469 20.324219 29.5625 20.234375 29.398438 C 20.148438 29.234375 20.019531 29.089844 19.855469 28.960938 C 19.6875 28.835938 19.5 28.738281 19.285156 28.671875 C 19.066406 28.605469 18.84375 28.570312 18.609375 28.570312 Z M 18.609375 33.035156 C 18.375 33.035156 18.152344 33.066406 17.9375 33.136719 C 17.722656 33.203125 17.53125 33.300781 17.367188 33.425781 C 17.199219 33.550781 17.074219 33.695312 16.984375 33.859375 C 16.894531 34.023438 16.851562 34.195312 16.851562 34.375 C 16.851562 34.550781 16.894531 34.722656 16.984375 34.886719 C 17.074219 35.050781 17.199219 35.195312 17.367188 35.320312 C 17.53125 35.445312 17.722656 35.542969 17.9375 35.609375 C 18.152344 35.679688 18.375 35.710938 18.609375 35.710938 C 18.84375 35.710938 19.066406 35.679688 19.285156 35.609375 C 19.5 35.542969 19.6875 35.445312 19.855469 35.320312 C 20.019531 35.195312 20.148438 35.050781 20.234375 34.886719 C 20.324219 34.722656 20.371094 34.550781 20.371094 34.375 C 20.371094 34.195312 20.324219 34.023438 20.234375 33.859375 C 20.148438 33.695312 20.019531 33.550781 19.855469 33.425781 C 19.6875 33.300781 19.5 33.203125 19.285156 33.136719 C 19.066406 33.066406 18.84375 33.035156 18.609375 33.035156 Z M 23.890625 23.214844 C 23.65625 23.214844 23.433594 23.246094 23.214844 23.316406 C 23 23.382812 22.808594 23.480469 22.644531 23.605469 C 22.480469 23.730469 22.351562 23.875 22.265625 24.039062 C 22.175781 24.203125 22.128906 24.375 22.128906 24.554688 C 22.128906 24.730469 22.175781 24.902344 22.265625 25.066406 C 22.351562 25.230469 22.480469 25.375 22.644531 25.5 C 22.808594 25.625 23 25.722656 23.214844 25.789062 C 23.433594 25.859375 23.65625 25.890625 23.890625 25.890625 C 24.125 25.890625 24.347656 25.859375 24.5625 25.789062 C 24.777344 25.722656 24.96875 25.625 25.132812 25.5 C 25.300781 25.375 25.425781 25.230469 25.515625 25.066406 C 25.605469 24.902344 25.648438 24.730469 25.648438 24.554688 C 25.648438 24.375 25.605469 24.203125 25.515625 24.039062 C 25.425781 23.875 25.300781 23.730469 25.132812 23.605469 C 24.96875 23.480469 24.777344 23.382812 24.5625 23.316406 C 24.347656 23.246094 24.125 23.214844 23.890625 23.214844 Z M 23.890625 27.675781 C 23.65625 27.675781 23.433594 27.710938 23.214844 27.78125 C 23 27.847656 22.808594 27.945312 22.644531 28.070312 C 22.480469 28.195312 22.351562 28.339844 22.265625 28.503906 C 22.175781 28.667969 22.128906 28.839844 22.128906 29.015625 C 22.128906 29.195312 22.175781 29.363281 22.265625 29.527344 C 22.351562 29.691406 22.480469 29.839844 22.644531 29.964844 C 22.808594 30.089844 23 30.1875 23.214844 30.253906 C 23.433594 30.320312 23.65625 30.355469 23.890625 30.355469 C 24.125 30.355469 24.347656 30.320312 24.5625 30.253906 C 24.777344 30.1875 24.96875 30.089844 25.132812 29.964844 C 25.300781 29.839844 25.425781 29.691406 25.515625 29.527344 C 25.605469 29.363281 25.648438 29.195312 25.648438 29.015625 C 25.648438 28.839844 25.605469 28.667969 25.515625 28.503906 C 25.425781 28.339844 25.300781 28.195312 25.132812 28.070312 C 24.96875 27.945312 24.777344 27.847656 24.5625 27.78125 C 24.347656 27.710938 24.125 27.675781 23.890625 27.675781 Z M 23.890625 32.140625 C 23.65625 32.140625 23.433594 32.175781 23.214844 32.242188 C 23 32.3125 22.808594 32.40625 22.644531 32.535156 C 22.480469 32.660156 22.351562 32.804688 22.265625 32.96875 C 22.175781 33.132812 22.128906 33.304688 22.128906 33.480469 C 22.128906 33.65625 22.175781 33.828125 22.265625 33.992188 C 22.351562 34.15625 22.480469 34.300781 22.644531 34.425781 C 22.808594 34.554688 23 34.648438 23.214844 34.71875 C 23.433594 34.785156 23.65625 34.820312 23.890625 34.820312 C 24.125 34.820312 24.347656 34.785156 24.5625 34.71875 C 24.777344 34.648438 24.96875 34.554688 25.132812 34.425781 C 25.300781 34.300781 25.425781 34.15625 25.515625 33.992188 C 25.605469 33.828125 25.648438 33.65625 25.648438 33.480469 C 25.648438 33.304688 25.605469 33.132812 25.515625 32.96875 C 25.425781 32.804688 25.300781 32.660156 25.132812 32.535156 C 24.96875 32.40625 24.777344 32.3125 24.5625 32.242188 C 24.347656 32.175781 24.125 32.140625 23.890625 32.140625 Z M 13.328125 23.214844 C 13.097656 23.214844 12.871094 23.246094 12.65625 23.316406 C 12.441406 23.382812 12.25 23.480469 12.085938 23.605469 C 11.921875 23.730469 11.792969 23.875 11.703125 24.039062 C 11.613281 24.203125 11.570312 24.375 11.570312 24.554688 C 11.570312 24.730469 11.613281 24.902344 11.703125 25.066406 C 11.792969 25.230469 11.921875 25.375 12.085938 25.5 C 12.25 25.625 12.441406 25.722656 12.65625 25.789062 C 12.871094 25.859375 13.097656 25.890625 13.328125 25.890625 C 13.5625 25.890625 13.789062 25.859375 14.003906 25.789062 C 14.21875 25.722656 14.410156 25.625 14.574219 25.5 C 14.738281 25.375 14.867188 25.230469 14.957031 25.066406 C 15.046875 24.902344 15.089844 24.730469 15.089844 24.554688 C 15.089844 24.375 15.046875 24.203125 14.957031 24.039062 C 14.867188 23.875 14.738281 23.730469 14.574219 23.605469 C 14.410156 23.480469 14.21875 23.382812 14.003906 23.316406 C 13.789062 23.246094 13.5625 23.214844 13.328125 23.214844 Z M 13.328125 27.675781 C 13.097656 27.675781 12.871094 27.710938 12.65625 27.78125 C 12.441406 27.847656 12.25 27.945312 12.085938 28.070312 C 11.921875 28.195312 11.792969 28.339844 11.703125 28.503906 C 11.613281 28.667969 11.570312 28.839844 11.570312 29.015625 C 11.570312 29.195312 11.613281 29.363281 11.703125 29.527344 C 11.792969 29.691406 11.921875 29.839844 12.085938 29.964844 C 12.25 30.089844 12.441406 30.1875 12.65625 30.253906 C 12.871094 30.320312 13.097656 30.355469 13.328125 30.355469 C 13.5625 30.355469 13.789062 30.320312 14.003906 30.253906 C 14.21875 30.1875 14.410156 30.089844 14.574219 29.964844 C 14.738281 29.839844 14.867188 29.691406 14.957031 29.527344 C 15.046875 29.363281 15.089844 29.195312 15.089844 29.015625 C 15.089844 28.839844 15.046875 28.667969 14.957031 28.503906 C 14.867188 28.339844 14.738281 28.195312 14.574219 28.070312 C 14.410156 27.945312 14.21875 27.847656 14.003906 27.78125 C 13.789062 27.710938 13.5625 27.675781 13.328125 27.675781 Z M 13.328125 32.140625 C 13.097656 32.140625 12.871094 32.175781 12.65625 32.242188 C 12.441406 32.3125 12.25 32.40625 12.085938 32.535156 C 11.921875 32.660156 11.792969 32.804688 11.703125 32.96875 C 11.613281 33.132812 11.570312 33.304688 11.570312 33.480469 C 11.570312 33.65625 11.613281 33.828125 11.703125 33.992188 C 11.792969 34.15625 11.921875 34.300781 12.085938 34.425781 C 12.25 34.554688 12.441406 34.648438 12.65625 34.71875 C 12.871094 34.785156 13.097656 34.820312 13.328125 34.820312 C 13.5625 34.820312 13.789062 34.785156 14.003906 34.71875 C 14.21875 34.648438 14.410156 34.554688 14.574219 34.425781 C 14.738281 34.300781 14.867188 34.15625 14.957031 33.992188 C 15.046875 33.828125 15.089844 33.65625 15.089844 33.480469 C 15.089844 33.304688 15.046875 33.132812 14.957031 32.96875 C 14.867188 32.804688 14.738281 32.660156 14.574219 32.535156 C 14.410156 32.40625 14.21875 32.3125 14.003906 32.242188 C 13.789062 32.175781 13.5625 32.140625 13.328125 32.140625 Z M 23.011719 0.894531 L 14.210938 0.894531 C 12.265625 0.894531 10.691406 2.492188 10.691406 4.464844 L 10.691406 14.285156 C 10.691406 18.722656 14.234375 22.320312 18.609375 22.320312 C 22.984375 22.320312 26.53125 18.722656 26.53125 14.285156 L 26.53125 4.464844 C 26.53125 2.492188 24.953125 0.894531 23.011719 0.894531 Z M 25.648438 14.285156 C 25.648438 16.75 23.679688 18.75 21.25 18.75 L 15.96875 18.75 C 13.539062 18.75 11.570312 16.75 11.570312 14.285156 L 11.570312 4.464844 C 11.570312 2.988281 12.75 1.789062 14.210938 1.789062 L 23.011719 1.789062 C 24.46875 1.789062 25.648438 2.988281 25.648438 4.464844 Z M 25.648438 14.285156 "/>
<path style=" stroke:none;fill-rule:nonzero;fill:rgb(21.569824%,27.839661%,30.979919%);fill-opacity:1;" d="M 18.609375 2.679688 C 18.367188 2.679688 18.160156 2.765625 17.988281 2.941406 C 17.816406 3.117188 17.730469 3.328125 17.730469 3.574219 C 17.730469 3.820312 17.816406 4.03125 17.988281 4.203125 C 18.160156 4.378906 18.367188 4.464844 18.609375 4.464844 C 18.851562 4.464844 19.058594 4.378906 19.230469 4.203125 C 19.402344 4.03125 19.488281 3.820312 19.488281 3.574219 C 19.488281 3.328125 19.402344 3.117188 19.230469 2.941406 C 19.058594 2.765625 18.851562 2.679688 18.609375 2.679688 Z M 18.609375 5.359375 C 18.367188 5.359375 18.160156 5.445312 17.988281 5.621094 C 17.816406 5.792969 17.730469 6.003906 17.730469 6.25 C 17.730469 6.496094 17.816406 6.707031 17.988281 6.882812 C 18.160156 7.058594 18.367188 7.144531 18.609375 7.144531 C 18.851562 7.144531 19.058594 7.058594 19.230469 6.882812 C 19.402344 6.707031 19.488281 6.496094 19.488281 6.25 C 19.488281 6.003906 19.402344 5.792969 19.230469 5.621094 C 19.058594 5.445312 18.851562 5.359375 18.609375 5.359375 Z M 18.609375 5.359375 "/>
</g>
</svg>
