<?xml version="1.0" encoding="UTF-8"?>
<svg xmlns="http://www.w3.org/2000/svg" xmlns:xlink="http://www.w3.org/1999/xlink" width="37.5pt" height="37.499999pt" viewBox="0 0 37.5 37.499999" version="1.2">
<defs>
<clipPath id="clip1">
  <path d="M 0 7.007812 L 37.007812 7.007812 L 37.007812 18 L 0 18 Z M 0 7.007812 "/>
</clipPath>
<clipPath id="clip2">
  <path d="M 28 12 L 37.007812 12 L 37.007812 18 L 28 18 Z M 28 12 "/>
</clipPath>
<clipPath id="clip3">
  <path d="M 28 9 L 37.007812 9 L 37.007812 18 L 28 18 Z M 28 9 "/>
</clipPath>
</defs>
<g id="surface1">
<g clip-path="url(#clip1)" clip-rule="nonzero">
<path style=" stroke:none;fill-rule:nonzero;fill:rgb(43.919373%,81.959534%,96.469116%);fill-opacity:1;" d="M 2.101562 17.449219 C 1.621094 17.449219 1.140625 17.269531 0.777344 16.910156 C 0.0429688 16.191406 0.0429688 15.027344 0.777344 14.3125 C 5.582031 9.601562 11.96875 7.007812 18.753906 7.007812 C 25.542969 7.007812 31.929688 9.601562 36.734375 14.3125 C 37.464844 15.027344 37.464844 16.191406 36.734375 16.910156 C 36 17.628906 34.8125 17.628906 34.082031 16.910156 C 29.984375 12.894531 24.542969 10.683594 18.753906 10.683594 C 12.96875 10.683594 7.527344 12.894531 3.429688 16.910156 C 3.0625 17.269531 2.582031 17.449219 2.101562 17.449219 "/>
</g>
<path style=" stroke:none;fill-rule:nonzero;fill:rgb(43.919373%,81.959534%,96.469116%);fill-opacity:1;" d="M 5.496094 21.542969 C 5.015625 21.542969 4.535156 21.363281 4.167969 21.007812 C 3.4375 20.289062 3.4375 19.125 4.167969 18.40625 C 8.066406 14.585938 13.246094 12.480469 18.753906 12.480469 C 24.261719 12.480469 29.441406 14.585938 33.339844 18.40625 C 34.074219 19.125 34.074219 20.289062 33.339844 21.007812 C 32.609375 21.722656 31.421875 21.722656 30.6875 21.007812 C 27.5 17.878906 23.261719 16.15625 18.753906 16.15625 C 14.25 16.15625 10.011719 17.878906 6.820312 21.007812 C 6.453125 21.363281 5.976562 21.542969 5.496094 21.542969 "/>
<path style=" stroke:none;fill-rule:nonzero;fill:rgb(43.919373%,81.959534%,96.469116%);fill-opacity:1;" d="M 29.15625 25.75 C 28.675781 25.75 28.195312 25.570312 27.828125 25.210938 C 25.402344 22.832031 22.179688 21.523438 18.753906 21.523438 C 15.328125 21.523438 12.105469 22.832031 9.683594 25.210938 C 8.949219 25.929688 7.761719 25.929688 7.03125 25.210938 C 6.296875 24.492188 6.296875 23.328125 7.03125 22.613281 C 10.164062 19.539062 14.328125 17.847656 18.753906 17.847656 C 23.183594 17.847656 27.347656 19.539062 30.480469 22.613281 C 31.210938 23.328125 31.210938 24.492188 30.480469 25.210938 C 30.113281 25.570312 29.632812 25.75 29.15625 25.75 "/>
<path style=" stroke:none;fill-rule:nonzero;fill:rgb(43.919373%,81.959534%,96.469116%);fill-opacity:1;" d="M 25.761719 29.847656 C 25.28125 29.847656 24.800781 29.667969 24.433594 29.308594 C 22.917969 27.820312 20.898438 27 18.753906 27 C 16.609375 27 14.59375 27.820312 13.074219 29.308594 C 12.34375 30.023438 11.15625 30.023438 10.421875 29.308594 C 9.691406 28.589844 9.691406 27.425781 10.421875 26.707031 C 12.648438 24.523438 15.609375 23.324219 18.753906 23.324219 C 21.902344 23.324219 24.859375 24.523438 27.085938 26.707031 C 27.820312 27.425781 27.820312 28.589844 27.085938 29.308594 C 26.722656 29.667969 26.242188 29.847656 25.761719 29.847656 "/>
<g clip-path="url(#clip2)" clip-rule="nonzero">
<path style=" stroke:none;fill-rule:nonzero;fill:rgb(76.469421%,76.078796%,76.469421%);fill-opacity:1;" d="M 35.40625 17.449219 C 34.929688 17.449219 34.449219 17.269531 34.082031 16.910156 C 34.078125 16.90625 34.074219 16.902344 34.074219 16.902344 C 34.074219 16.90625 34.078125 16.90625 34.082031 16.910156 C 34.449219 17.269531 34.929688 17.449219 35.40625 17.449219 C 35.886719 17.449219 36.367188 17.269531 36.734375 16.910156 C 37.101562 16.550781 37.28125 16.082031 37.28125 15.609375 C 37.28125 16.082031 37.101562 16.550781 36.734375 16.910156 C 36.367188 17.269531 35.886719 17.449219 35.40625 17.449219 M 34.070312 16.898438 C 34.070312 16.898438 34.066406 16.894531 34.0625 16.890625 C 34.066406 16.894531 34.070312 16.898438 34.070312 16.898438 M 34.0625 16.890625 C 32.433594 15.296875 30.59375 13.992188 28.601562 12.992188 C 30.59375 13.988281 32.433594 15.296875 34.0625 16.890625 M 36.722656 14.300781 C 36.722656 14.300781 36.722656 14.300781 36.722656 14.296875 C 36.722656 14.300781 36.722656 14.300781 36.722656 14.300781 M 36.710938 14.289062 C 36.710938 14.289062 36.710938 14.289062 36.707031 14.285156 C 36.710938 14.289062 36.710938 14.289062 36.710938 14.289062 M 36.703125 14.28125 C 36.699219 14.277344 36.699219 14.277344 36.695312 14.273438 C 36.699219 14.277344 36.699219 14.277344 36.703125 14.28125 M 36.691406 14.269531 C 36.6875 14.265625 36.6875 14.265625 36.683594 14.261719 C 36.6875 14.265625 36.6875 14.265625 36.691406 14.269531 M 36.679688 14.261719 C 36.679688 14.257812 36.675781 14.253906 36.671875 14.25 C 36.675781 14.253906 36.679688 14.257812 36.679688 14.261719 M 36.667969 14.246094 C 36.65625 14.238281 36.648438 14.226562 36.636719 14.214844 C 36.648438 14.226562 36.65625 14.238281 36.667969 14.246094 M 36.636719 14.214844 C 36.585938 14.167969 36.535156 14.121094 36.488281 14.070312 C 36.535156 14.121094 36.585938 14.167969 36.636719 14.214844 M 36.484375 14.070312 C 36.480469 14.066406 36.476562 14.0625 36.472656 14.058594 C 36.476562 14.0625 36.480469 14.066406 36.484375 14.070312 M 36.472656 14.058594 C 36.464844 14.050781 36.457031 14.042969 36.453125 14.039062 C 36.457031 14.046875 36.464844 14.050781 36.472656 14.058594 M 36.449219 14.035156 C 36.445312 14.03125 36.441406 14.03125 36.441406 14.027344 C 36.441406 14.03125 36.445312 14.03125 36.449219 14.035156 M 36.433594 14.023438 C 36.433594 14.019531 36.433594 14.019531 36.429688 14.019531 C 36.433594 14.019531 36.433594 14.019531 36.433594 14.023438 M 36.421875 14.011719 C 36.421875 14.007812 36.417969 14.007812 36.417969 14.007812 C 36.417969 14.007812 36.421875 14.007812 36.421875 14.011719 M 36.410156 14 C 36.410156 14 36.410156 14 36.40625 13.996094 C 36.410156 14 36.410156 14 36.410156 14 M 36.398438 13.988281 C 36.398438 13.988281 36.398438 13.988281 36.394531 13.984375 C 36.398438 13.988281 36.398438 13.988281 36.398438 13.988281 M 36.386719 13.976562 L 36.386719 13.976562 M 36.375 13.964844 L 36.375 13.964844 "/>
</g>
<g clip-path="url(#clip3)" clip-rule="nonzero">
<path style=" stroke:none;fill-rule:nonzero;fill:rgb(33.729553%,61.959839%,74.119568%);fill-opacity:1;" d="M 35.40625 17.449219 C 34.929688 17.449219 34.449219 17.269531 34.082031 16.910156 C 34.078125 16.90625 34.074219 16.90625 34.074219 16.902344 C 34.074219 16.902344 34.070312 16.902344 34.070312 16.898438 C 34.070312 16.898438 34.066406 16.894531 34.0625 16.890625 C 32.433594 15.296875 30.59375 13.988281 28.601562 12.992188 C 28.742188 12.742188 28.878906 12.488281 29 12.230469 C 29.394531 11.390625 29.796875 10.515625 30.125 9.625 C 32.390625 10.742188 34.496094 12.195312 36.375 13.964844 C 36.378906 13.96875 36.382812 13.972656 36.386719 13.976562 C 36.390625 13.980469 36.390625 13.984375 36.394531 13.984375 C 36.398438 13.988281 36.398438 13.988281 36.398438 13.988281 C 36.402344 13.992188 36.40625 13.996094 36.40625 13.996094 C 36.410156 14 36.410156 14 36.410156 14 C 36.414062 14.003906 36.414062 14.003906 36.417969 14.007812 C 36.417969 14.007812 36.421875 14.007812 36.421875 14.011719 C 36.425781 14.011719 36.425781 14.015625 36.429688 14.019531 C 36.433594 14.019531 36.433594 14.019531 36.433594 14.023438 C 36.4375 14.023438 36.4375 14.027344 36.441406 14.027344 C 36.441406 14.03125 36.445312 14.03125 36.449219 14.035156 C 36.449219 14.035156 36.449219 14.039062 36.453125 14.039062 C 36.457031 14.042969 36.464844 14.050781 36.472656 14.058594 C 36.476562 14.0625 36.480469 14.066406 36.484375 14.070312 C 36.484375 14.070312 36.488281 14.070312 36.488281 14.070312 C 36.535156 14.121094 36.585938 14.167969 36.636719 14.214844 C 36.648438 14.226562 36.65625 14.238281 36.667969 14.246094 C 36.671875 14.25 36.671875 14.25 36.671875 14.25 C 36.675781 14.253906 36.679688 14.257812 36.679688 14.261719 C 36.683594 14.261719 36.683594 14.261719 36.683594 14.261719 C 36.6875 14.265625 36.6875 14.265625 36.691406 14.269531 C 36.691406 14.269531 36.695312 14.273438 36.695312 14.273438 C 36.699219 14.277344 36.699219 14.277344 36.703125 14.28125 C 36.703125 14.28125 36.707031 14.285156 36.707031 14.285156 C 36.710938 14.289062 36.710938 14.289062 36.710938 14.289062 C 36.714844 14.292969 36.71875 14.296875 36.722656 14.296875 C 36.722656 14.300781 36.722656 14.300781 36.722656 14.300781 C 36.726562 14.304688 36.730469 14.308594 36.734375 14.3125 C 37.101562 14.671875 37.28125 15.140625 37.28125 15.609375 C 37.28125 16.082031 37.101562 16.550781 36.734375 16.910156 C 36.367188 17.269531 35.886719 17.449219 35.40625 17.449219 "/>
</g>
<path style=" stroke:none;fill-rule:nonzero;fill:rgb(76.469421%,76.078796%,76.469421%);fill-opacity:1;" d="M 32.015625 21.542969 C 32.496094 21.542969 32.976562 21.363281 33.339844 21.007812 C 33.707031 20.648438 33.890625 20.175781 33.890625 19.707031 C 33.890625 20.175781 33.707031 20.648438 33.339844 21.007812 C 32.976562 21.363281 32.496094 21.542969 32.015625 21.542969 M 30.6875 21.007812 C 30.6875 21.003906 30.683594 21 30.679688 20.996094 C 30.683594 21 30.6875 21.003906 30.6875 21.007812 M 30.679688 20.996094 C 30.675781 20.992188 30.671875 20.992188 30.671875 20.988281 C 30.671875 20.992188 30.675781 20.992188 30.679688 20.996094 M 30.667969 20.988281 C 30.667969 20.984375 30.664062 20.980469 30.660156 20.980469 C 30.664062 20.980469 30.667969 20.984375 30.667969 20.988281 M 30.660156 20.976562 C 30.65625 20.976562 30.65625 20.972656 30.652344 20.96875 C 30.65625 20.972656 30.65625 20.976562 30.660156 20.976562 M 30.648438 20.96875 C 30.648438 20.964844 30.644531 20.964844 30.644531 20.960938 C 30.644531 20.964844 30.648438 20.964844 30.648438 20.96875 M 30.640625 20.957031 C 30.636719 20.957031 30.636719 20.953125 30.632812 20.953125 C 30.636719 20.953125 30.636719 20.957031 30.640625 20.957031 M 30.628906 20.949219 C 30.628906 20.949219 30.625 20.945312 30.625 20.945312 C 30.625 20.945312 30.628906 20.945312 30.628906 20.949219 M 30.621094 20.941406 C 30.617188 20.9375 30.617188 20.9375 30.617188 20.933594 C 30.617188 20.9375 30.617188 20.9375 30.621094 20.941406 M 30.609375 20.929688 C 30.609375 20.929688 30.609375 20.925781 30.605469 20.925781 C 30.605469 20.925781 30.609375 20.929688 30.609375 20.929688 M 30.601562 20.921875 C 30.601562 20.917969 30.597656 20.917969 30.597656 20.917969 C 30.597656 20.917969 30.601562 20.917969 30.601562 20.921875 M 30.59375 20.914062 C 30.589844 20.910156 30.589844 20.910156 30.585938 20.90625 C 30.589844 20.910156 30.589844 20.910156 30.59375 20.914062 M 30.582031 20.902344 C 30.582031 20.902344 30.578125 20.898438 30.578125 20.898438 C 30.578125 20.898438 30.582031 20.902344 30.582031 20.902344 M 30.574219 20.894531 C 30.570312 20.890625 30.570312 20.890625 30.566406 20.886719 C 30.570312 20.890625 30.570312 20.890625 30.574219 20.894531 M 30.5625 20.886719 C 30.5625 20.882812 30.558594 20.882812 30.558594 20.878906 C 30.558594 20.882812 30.5625 20.882812 30.5625 20.886719 M 30.554688 20.875 C 30.550781 20.875 30.550781 20.871094 30.546875 20.871094 C 30.550781 20.871094 30.550781 20.875 30.554688 20.875 M 30.546875 20.867188 C 30.542969 20.863281 30.539062 20.863281 30.539062 20.859375 C 30.539062 20.863281 30.542969 20.863281 30.546875 20.867188 M 30.535156 20.859375 C 30.535156 20.855469 30.53125 20.855469 30.527344 20.851562 C 30.53125 20.855469 30.535156 20.855469 30.535156 20.859375 M 30.527344 20.847656 C 30.523438 20.847656 30.523438 20.84375 30.519531 20.84375 C 30.523438 20.84375 30.523438 20.847656 30.527344 20.847656 M 30.519531 20.839844 C 30.515625 20.835938 30.511719 20.835938 30.507812 20.832031 C 30.511719 20.835938 30.515625 20.835938 30.519531 20.839844 M 30.507812 20.832031 C 30.503906 20.828125 30.503906 20.828125 30.5 20.824219 C 30.503906 20.828125 30.503906 20.828125 30.507812 20.832031 M 30.5 20.824219 C 28.933594 19.335938 27.125 18.179688 25.164062 17.390625 C 27.125 18.179688 28.933594 19.335938 30.5 20.824219 M 33.332031 18.398438 L 33.332031 18.398438 M 33.324219 18.390625 C 33.320312 18.390625 33.320312 18.386719 33.320312 18.386719 C 33.320312 18.386719 33.320312 18.390625 33.324219 18.390625 M 33.3125 18.378906 C 33.3125 18.378906 33.308594 18.378906 33.308594 18.375 C 33.308594 18.378906 33.3125 18.378906 33.3125 18.378906 M 33.304688 18.371094 C 33.300781 18.371094 33.300781 18.367188 33.296875 18.367188 C 33.300781 18.367188 33.300781 18.371094 33.304688 18.371094 M 33.292969 18.363281 C 33.289062 18.355469 33.285156 18.351562 33.277344 18.347656 C 33.285156 18.351562 33.289062 18.355469 33.292969 18.363281 M 33.277344 18.34375 C 33.273438 18.34375 33.269531 18.339844 33.265625 18.335938 C 33.269531 18.339844 33.273438 18.34375 33.277344 18.34375 M 33.265625 18.335938 C 33.242188 18.3125 33.222656 18.289062 33.199219 18.269531 C 33.222656 18.289062 33.242188 18.3125 33.265625 18.335938 M 33.195312 18.269531 C 33.195312 18.265625 33.191406 18.261719 33.1875 18.257812 C 33.191406 18.261719 33.195312 18.265625 33.195312 18.269531 M 33.1875 18.257812 C 33.183594 18.253906 33.179688 18.25 33.175781 18.246094 C 33.179688 18.25 33.183594 18.253906 33.1875 18.257812 M 33.175781 18.246094 C 33.171875 18.246094 33.171875 18.242188 33.171875 18.242188 C 33.171875 18.242188 33.171875 18.246094 33.175781 18.246094 M 33.164062 18.238281 C 33.164062 18.234375 33.160156 18.234375 33.160156 18.234375 C 33.160156 18.234375 33.164062 18.234375 33.164062 18.238281 M 33.15625 18.226562 C 33.152344 18.226562 33.152344 18.226562 33.152344 18.222656 C 33.152344 18.226562 33.152344 18.226562 33.15625 18.226562 M 33.144531 18.21875 C 33.144531 18.214844 33.144531 18.214844 33.140625 18.214844 C 33.140625 18.214844 33.144531 18.214844 33.144531 18.21875 M 33.132812 18.207031 L 33.132812 18.207031 "/>
<path style=" stroke:none;fill-rule:nonzero;fill:rgb(33.729553%,61.959839%,74.119568%);fill-opacity:1;" d="M 32.015625 21.542969 C 31.535156 21.542969 31.054688 21.363281 30.6875 21.007812 C 30.6875 21.003906 30.683594 21 30.679688 20.996094 C 30.675781 20.992188 30.671875 20.992188 30.671875 20.988281 C 30.671875 20.988281 30.667969 20.988281 30.667969 20.988281 C 30.667969 20.984375 30.664062 20.980469 30.660156 20.980469 C 30.660156 20.980469 30.660156 20.976562 30.660156 20.976562 C 30.65625 20.976562 30.65625 20.972656 30.652344 20.96875 C 30.652344 20.96875 30.652344 20.96875 30.648438 20.96875 C 30.648438 20.964844 30.644531 20.964844 30.644531 20.960938 C 30.640625 20.960938 30.640625 20.960938 30.640625 20.957031 C 30.636719 20.957031 30.636719 20.953125 30.632812 20.953125 C 30.632812 20.953125 30.632812 20.949219 30.628906 20.949219 C 30.628906 20.945312 30.625 20.945312 30.625 20.945312 C 30.625 20.941406 30.621094 20.941406 30.621094 20.941406 C 30.617188 20.9375 30.617188 20.9375 30.617188 20.933594 C 30.613281 20.933594 30.613281 20.933594 30.609375 20.929688 C 30.609375 20.929688 30.605469 20.925781 30.605469 20.925781 C 30.605469 20.925781 30.601562 20.921875 30.601562 20.921875 C 30.601562 20.917969 30.597656 20.917969 30.597656 20.917969 C 30.59375 20.914062 30.59375 20.914062 30.59375 20.914062 C 30.589844 20.910156 30.589844 20.910156 30.585938 20.90625 C 30.585938 20.90625 30.585938 20.90625 30.582031 20.902344 C 30.582031 20.902344 30.578125 20.898438 30.578125 20.898438 C 30.574219 20.898438 30.574219 20.894531 30.574219 20.894531 C 30.570312 20.890625 30.570312 20.890625 30.566406 20.886719 C 30.566406 20.886719 30.566406 20.886719 30.5625 20.886719 C 30.5625 20.882812 30.558594 20.882812 30.558594 20.878906 C 30.554688 20.878906 30.554688 20.878906 30.554688 20.875 C 30.550781 20.875 30.550781 20.871094 30.546875 20.871094 C 30.546875 20.867188 30.546875 20.867188 30.546875 20.867188 C 30.542969 20.863281 30.539062 20.863281 30.539062 20.859375 C 30.539062 20.859375 30.535156 20.859375 30.535156 20.859375 C 30.535156 20.855469 30.53125 20.855469 30.527344 20.851562 C 30.527344 20.851562 30.527344 20.851562 30.527344 20.847656 C 30.523438 20.847656 30.523438 20.84375 30.519531 20.84375 C 30.519531 20.839844 30.519531 20.839844 30.519531 20.839844 C 30.515625 20.835938 30.511719 20.835938 30.507812 20.832031 C 30.503906 20.828125 30.503906 20.828125 30.5 20.824219 C 28.933594 19.335938 27.125 18.179688 25.164062 17.390625 C 25.476562 17.089844 25.773438 16.777344 26.054688 16.445312 C 26.601562 15.796875 27.148438 15.136719 27.652344 14.449219 C 29.648438 15.390625 31.5 16.648438 33.132812 18.207031 C 33.136719 18.210938 33.140625 18.210938 33.140625 18.214844 C 33.144531 18.214844 33.144531 18.214844 33.144531 18.21875 C 33.148438 18.21875 33.148438 18.222656 33.152344 18.222656 C 33.152344 18.226562 33.152344 18.226562 33.15625 18.226562 C 33.15625 18.230469 33.160156 18.230469 33.160156 18.234375 C 33.160156 18.234375 33.164062 18.234375 33.164062 18.238281 C 33.167969 18.238281 33.167969 18.242188 33.171875 18.242188 C 33.171875 18.242188 33.171875 18.246094 33.175781 18.246094 C 33.179688 18.25 33.183594 18.253906 33.1875 18.257812 C 33.191406 18.261719 33.195312 18.265625 33.195312 18.269531 C 33.199219 18.269531 33.199219 18.269531 33.199219 18.269531 C 33.222656 18.289062 33.242188 18.3125 33.265625 18.335938 C 33.269531 18.339844 33.273438 18.34375 33.277344 18.34375 C 33.277344 18.347656 33.277344 18.347656 33.277344 18.347656 C 33.285156 18.351562 33.289062 18.355469 33.292969 18.363281 C 33.296875 18.363281 33.296875 18.363281 33.296875 18.367188 C 33.300781 18.367188 33.300781 18.371094 33.304688 18.371094 C 33.304688 18.375 33.308594 18.375 33.308594 18.375 C 33.308594 18.378906 33.3125 18.378906 33.3125 18.378906 C 33.316406 18.382812 33.316406 18.386719 33.320312 18.386719 C 33.320312 18.386719 33.320312 18.390625 33.324219 18.390625 C 33.324219 18.390625 33.328125 18.394531 33.332031 18.398438 C 33.335938 18.402344 33.339844 18.40625 33.339844 18.40625 C 33.707031 18.765625 33.890625 19.238281 33.890625 19.707031 C 33.890625 20.175781 33.707031 20.648438 33.339844 21.007812 C 32.976562 21.363281 32.496094 21.542969 32.015625 21.542969 "/>
<path style=" stroke:none;fill-rule:nonzero;fill:rgb(76.469421%,76.078796%,76.469421%);fill-opacity:1;" d="M 8.355469 25.75 C 7.875 25.75 7.394531 25.570312 7.03125 25.210938 C 7.394531 25.570312 7.875 25.75 8.355469 25.75 C 8.835938 25.75 9.316406 25.570312 9.683594 25.210938 C 10.34375 24.5625 11.0625 23.996094 11.828125 23.511719 C 11.0625 23.996094 10.34375 24.5625 9.683594 25.210938 C 9.316406 25.570312 8.835938 25.75 8.355469 25.75 M 7.027344 25.207031 L 7.027344 25.207031 M 7.023438 25.207031 L 7.023438 25.207031 M 7.023438 25.203125 L 7.023438 25.203125 "/>
<path style=" stroke:none;fill-rule:nonzero;fill:rgb(33.729553%,61.959839%,74.119568%);fill-opacity:1;" d="M 8.355469 25.75 C 7.875 25.75 7.394531 25.570312 7.03125 25.210938 C 7.027344 25.210938 7.027344 25.210938 7.027344 25.207031 C 7.027344 25.207031 7.027344 25.207031 7.023438 25.207031 C 7.023438 25.203125 7.023438 25.203125 7.023438 25.203125 C 6.582031 24.765625 6.414062 24.167969 6.507812 23.605469 C 7.242188 23.691406 7.984375 23.742188 8.722656 23.742188 C 8.9375 23.742188 9.152344 23.738281 9.367188 23.730469 C 10.1875 23.695312 11.007812 23.617188 11.828125 23.511719 C 11.0625 23.996094 10.34375 24.5625 9.683594 25.210938 C 9.316406 25.570312 8.835938 25.75 8.355469 25.75 "/>
<path style=" stroke:none;fill-rule:nonzero;fill:rgb(76.469421%,76.078796%,76.469421%);fill-opacity:1;" d="M 27.820312 25.203125 C 27.820312 25.203125 27.820312 25.203125 27.816406 25.199219 C 27.820312 25.203125 27.820312 25.203125 27.820312 25.203125 M 27.8125 25.195312 L 27.8125 25.195312 M 27.808594 25.191406 C 27.804688 25.1875 27.804688 25.1875 27.804688 25.1875 C 27.804688 25.1875 27.804688 25.1875 27.808594 25.191406 M 27.800781 25.183594 C 27.800781 25.183594 27.796875 25.179688 27.796875 25.179688 C 27.796875 25.179688 27.800781 25.183594 27.800781 25.183594 M 27.792969 25.175781 C 27.792969 25.175781 27.789062 25.171875 27.789062 25.171875 C 27.789062 25.175781 27.792969 25.175781 27.792969 25.175781 M 27.785156 25.167969 C 27.785156 25.167969 27.785156 25.167969 27.78125 25.164062 C 27.785156 25.167969 27.785156 25.167969 27.785156 25.167969 M 27.777344 25.164062 C 27.777344 25.160156 27.777344 25.160156 27.773438 25.160156 C 27.777344 25.160156 27.777344 25.160156 27.777344 25.164062 M 27.773438 25.15625 C 27.769531 25.15625 27.769531 25.152344 27.769531 25.152344 C 27.769531 25.152344 27.769531 25.15625 27.773438 25.15625 M 27.765625 25.148438 C 27.765625 25.148438 27.761719 25.144531 27.761719 25.144531 C 27.761719 25.144531 27.765625 25.148438 27.765625 25.148438 M 27.757812 25.140625 C 27.757812 25.140625 27.753906 25.140625 27.753906 25.136719 C 27.753906 25.140625 27.757812 25.140625 27.757812 25.140625 M 27.75 25.136719 C 27.75 25.132812 27.75 25.132812 27.746094 25.132812 C 27.75 25.132812 27.75 25.132812 27.75 25.136719 M 27.742188 25.128906 C 27.742188 25.128906 27.742188 25.125 27.738281 25.125 C 27.742188 25.125 27.742188 25.128906 27.742188 25.128906 M 27.738281 25.121094 C 27.734375 25.121094 27.734375 25.121094 27.730469 25.117188 C 27.734375 25.121094 27.734375 25.121094 27.738281 25.121094 M 27.730469 25.117188 C 27.730469 25.113281 27.726562 25.113281 27.726562 25.109375 C 27.726562 25.113281 27.730469 25.113281 27.730469 25.117188 M 27.722656 25.109375 C 27.722656 25.105469 27.71875 25.105469 27.71875 25.105469 C 27.71875 25.105469 27.722656 25.105469 27.722656 25.109375 M 27.714844 25.101562 C 27.714844 25.101562 27.710938 25.097656 27.710938 25.097656 C 27.710938 25.097656 27.714844 25.101562 27.714844 25.101562 M 27.710938 25.09375 C 27.707031 25.09375 27.707031 25.09375 27.703125 25.089844 C 27.707031 25.09375 27.707031 25.09375 27.710938 25.09375 M 27.703125 25.089844 C 27.699219 25.085938 27.699219 25.085938 27.695312 25.082031 C 27.699219 25.085938 27.699219 25.085938 27.703125 25.089844 M 27.695312 25.082031 C 27.691406 25.082031 27.691406 25.078125 27.6875 25.078125 C 27.691406 25.078125 27.695312 25.082031 27.695312 25.082031 M 27.6875 25.074219 C 27.6875 25.074219 27.683594 25.070312 27.683594 25.070312 C 27.683594 25.070312 27.6875 25.074219 27.6875 25.074219 M 27.679688 25.070312 C 27.679688 25.066406 27.675781 25.066406 27.675781 25.0625 C 27.675781 25.066406 27.679688 25.066406 27.679688 25.070312 M 27.675781 25.0625 C 27.671875 25.058594 27.667969 25.058594 27.667969 25.054688 C 27.671875 25.058594 27.671875 25.058594 27.675781 25.0625 M 27.667969 25.054688 C 25.320312 22.832031 22.265625 21.589844 19.007812 21.527344 C 22.265625 21.585938 25.324219 22.835938 27.667969 25.054688 M 30.480469 22.613281 C 30.476562 22.609375 30.472656 22.605469 30.472656 22.605469 C 30.472656 22.605469 30.476562 22.609375 30.480469 22.613281 M 30.46875 22.601562 C 30.46875 22.597656 30.464844 22.597656 30.460938 22.59375 C 30.464844 22.597656 30.46875 22.597656 30.46875 22.601562 M 30.460938 22.59375 C 30.457031 22.589844 30.457031 22.585938 30.453125 22.585938 C 30.457031 22.585938 30.457031 22.589844 30.460938 22.59375 M 30.453125 22.585938 C 30.449219 22.582031 30.445312 22.578125 30.445312 22.578125 C 30.445312 22.578125 30.449219 22.582031 30.453125 22.585938 M 30.441406 22.574219 C 30.441406 22.574219 30.4375 22.570312 30.433594 22.566406 C 30.4375 22.570312 30.441406 22.570312 30.441406 22.574219 M 30.433594 22.566406 C 30.429688 22.5625 30.429688 22.5625 30.425781 22.558594 C 30.429688 22.5625 30.429688 22.5625 30.433594 22.566406 M 30.425781 22.558594 C 30.421875 22.554688 30.417969 22.550781 30.417969 22.550781 C 30.417969 22.550781 30.421875 22.554688 30.425781 22.558594 M 30.414062 22.546875 C 30.410156 22.546875 30.410156 22.542969 30.40625 22.539062 C 30.410156 22.542969 30.410156 22.546875 30.414062 22.546875 M 30.40625 22.539062 C 30.402344 22.535156 30.402344 22.535156 30.398438 22.535156 C 30.402344 22.535156 30.402344 22.535156 30.40625 22.539062 M 30.394531 22.53125 C 30.394531 22.527344 30.390625 22.527344 30.390625 22.523438 C 30.390625 22.527344 30.394531 22.527344 30.394531 22.53125 M 30.386719 22.519531 C 30.382812 22.519531 30.382812 22.515625 30.382812 22.515625 C 30.382812 22.515625 30.382812 22.519531 30.386719 22.519531 M 30.375 22.507812 C 30.375 22.507812 30.371094 22.507812 30.371094 22.507812 C 30.375 22.507812 30.375 22.507812 30.375 22.507812 M 30.355469 22.492188 L 30.355469 22.492188 "/>
<path style=" stroke:none;fill-rule:nonzero;fill:rgb(33.729553%,61.959839%,74.119568%);fill-opacity:1;" d="M 29.15625 25.75 C 28.675781 25.75 28.195312 25.570312 27.828125 25.210938 C 27.824219 25.207031 27.824219 25.207031 27.820312 25.203125 C 27.820312 25.203125 27.820312 25.203125 27.816406 25.199219 C 27.816406 25.199219 27.816406 25.199219 27.8125 25.195312 C 27.808594 25.191406 27.808594 25.191406 27.808594 25.191406 C 27.804688 25.1875 27.804688 25.1875 27.804688 25.1875 C 27.800781 25.1875 27.800781 25.183594 27.800781 25.183594 C 27.800781 25.183594 27.796875 25.179688 27.796875 25.179688 C 27.796875 25.179688 27.792969 25.175781 27.792969 25.175781 C 27.792969 25.175781 27.789062 25.175781 27.789062 25.171875 C 27.789062 25.171875 27.789062 25.171875 27.785156 25.167969 C 27.785156 25.167969 27.785156 25.167969 27.78125 25.164062 C 27.78125 25.164062 27.78125 25.164062 27.777344 25.164062 C 27.777344 25.160156 27.777344 25.160156 27.773438 25.160156 C 27.773438 25.15625 27.773438 25.15625 27.773438 25.15625 C 27.769531 25.15625 27.769531 25.152344 27.769531 25.152344 C 27.765625 25.152344 27.765625 25.148438 27.765625 25.148438 C 27.765625 25.148438 27.761719 25.144531 27.761719 25.144531 C 27.761719 25.144531 27.757812 25.144531 27.757812 25.140625 C 27.757812 25.140625 27.753906 25.140625 27.753906 25.136719 C 27.753906 25.136719 27.75 25.136719 27.75 25.136719 C 27.75 25.132812 27.75 25.132812 27.746094 25.132812 C 27.746094 25.128906 27.746094 25.128906 27.742188 25.128906 C 27.742188 25.128906 27.742188 25.125 27.738281 25.125 C 27.738281 25.125 27.738281 25.121094 27.738281 25.121094 C 27.734375 25.121094 27.734375 25.121094 27.730469 25.117188 C 27.730469 25.113281 27.726562 25.113281 27.726562 25.109375 C 27.722656 25.109375 27.722656 25.109375 27.722656 25.109375 C 27.722656 25.105469 27.71875 25.105469 27.71875 25.105469 C 27.71875 25.101562 27.714844 25.101562 27.714844 25.101562 C 27.714844 25.101562 27.710938 25.097656 27.710938 25.097656 C 27.710938 25.097656 27.710938 25.097656 27.710938 25.09375 C 27.707031 25.09375 27.707031 25.09375 27.703125 25.089844 C 27.699219 25.085938 27.699219 25.085938 27.695312 25.082031 C 27.695312 25.082031 27.691406 25.078125 27.6875 25.078125 C 27.6875 25.074219 27.6875 25.074219 27.6875 25.074219 C 27.6875 25.074219 27.683594 25.070312 27.683594 25.070312 C 27.683594 25.070312 27.679688 25.070312 27.679688 25.070312 C 27.679688 25.066406 27.675781 25.066406 27.675781 25.0625 C 27.671875 25.058594 27.671875 25.058594 27.667969 25.054688 C 25.324219 22.835938 22.265625 21.585938 19.007812 21.527344 C 19.113281 21.480469 19.214844 21.4375 19.316406 21.394531 C 20.304688 20.976562 21.238281 20.453125 22.101562 19.828125 C 22.660156 19.421875 23.214844 19.019531 23.753906 18.597656 C 26.210938 19.355469 28.464844 20.675781 30.355469 22.492188 C 30.363281 22.496094 30.367188 22.5 30.371094 22.507812 C 30.371094 22.507812 30.375 22.507812 30.375 22.507812 C 30.378906 22.511719 30.378906 22.515625 30.382812 22.515625 C 30.382812 22.515625 30.382812 22.519531 30.386719 22.519531 C 30.386719 22.519531 30.386719 22.523438 30.390625 22.523438 C 30.390625 22.527344 30.394531 22.527344 30.394531 22.53125 C 30.398438 22.53125 30.398438 22.53125 30.398438 22.535156 C 30.402344 22.535156 30.402344 22.535156 30.40625 22.539062 C 30.410156 22.542969 30.410156 22.546875 30.414062 22.546875 C 30.414062 22.546875 30.417969 22.550781 30.417969 22.550781 C 30.417969 22.550781 30.421875 22.554688 30.425781 22.558594 C 30.429688 22.5625 30.429688 22.5625 30.433594 22.566406 C 30.4375 22.570312 30.441406 22.574219 30.441406 22.574219 C 30.441406 22.574219 30.445312 22.578125 30.445312 22.578125 C 30.445312 22.578125 30.449219 22.582031 30.453125 22.585938 C 30.457031 22.585938 30.457031 22.589844 30.460938 22.59375 C 30.464844 22.597656 30.46875 22.597656 30.46875 22.601562 C 30.472656 22.601562 30.472656 22.601562 30.472656 22.605469 C 30.472656 22.605469 30.476562 22.609375 30.480469 22.613281 C 30.847656 22.96875 31.027344 23.441406 31.027344 23.910156 C 31.027344 24.382812 30.847656 24.851562 30.480469 25.210938 C 30.113281 25.570312 29.632812 25.75 29.15625 25.75 "/>
<path style=" stroke:none;fill-rule:nonzero;fill:rgb(76.469421%,76.078796%,76.469421%);fill-opacity:1;" d="M 25.761719 29.847656 C 25.28125 29.847656 24.800781 29.667969 24.433594 29.308594 C 22.917969 27.820312 20.898438 27 18.753906 27 C 16.609375 27 14.59375 27.820312 13.074219 29.308594 C 13.074219 29.308594 13.074219 29.308594 13.070312 29.308594 C 13.074219 29.308594 13.074219 29.308594 13.074219 29.308594 C 14.59375 27.820312 16.609375 27 18.753906 27 C 20.898438 27 22.917969 27.820312 24.433594 29.308594 C 24.800781 29.667969 25.28125 29.847656 25.761719 29.847656 C 26.242188 29.847656 26.722656 29.667969 27.085938 29.308594 C 27.453125 28.949219 27.636719 28.476562 27.636719 28.007812 C 27.636719 28.476562 27.453125 28.949219 27.085938 29.308594 C 26.722656 29.667969 26.242188 29.847656 25.761719 29.847656 M 11.75 29.847656 C 11.746094 29.847656 11.746094 29.847656 11.746094 29.847656 C 11.746094 29.847656 11.746094 29.847656 11.75 29.847656 M 11.75 29.847656 C 12.222656 29.847656 12.699219 29.667969 13.066406 29.316406 C 12.699219 29.667969 12.222656 29.847656 11.75 29.847656 M 10.433594 29.320312 C 10.433594 29.316406 10.429688 29.3125 10.425781 29.3125 C 10.429688 29.3125 10.433594 29.316406 10.433594 29.320312 "/>
<path style=" stroke:none;fill-rule:nonzero;fill:rgb(33.729553%,61.959839%,74.119568%);fill-opacity:1;" d="M 25.761719 29.847656 C 25.28125 29.847656 24.800781 29.667969 24.433594 29.308594 C 22.917969 27.820312 20.898438 27 18.753906 27 C 16.609375 27 14.59375 27.820312 13.074219 29.308594 C 13.074219 29.308594 13.074219 29.308594 13.070312 29.308594 C 13.070312 29.3125 13.066406 29.3125 13.066406 29.316406 C 12.699219 29.667969 12.222656 29.847656 11.75 29.847656 C 11.746094 29.847656 11.746094 29.847656 11.746094 29.847656 C 11.273438 29.847656 10.800781 29.671875 10.433594 29.320312 C 10.433594 29.316406 10.429688 29.3125 10.425781 29.3125 C 10.425781 29.308594 10.421875 29.308594 10.421875 29.308594 C 10.054688 28.949219 9.875 28.476562 9.875 28.007812 C 9.875 27.539062 10.054688 27.066406 10.421875 26.707031 C 12.648438 24.523438 15.609375 23.324219 18.753906 23.324219 C 21.902344 23.324219 24.859375 24.523438 27.085938 26.707031 C 27.453125 27.066406 27.636719 27.539062 27.636719 28.007812 C 27.636719 28.476562 27.453125 28.949219 27.085938 29.308594 C 26.722656 29.667969 26.242188 29.847656 25.761719 29.847656 "/>
</g>
</svg>
